<?xml version="1.0" standalone="no"?>
<!DOCTYPE svg PUBLIC "-//W3C//DTD SVG 20010904//EN"
 "http://www.w3.org/TR/2001/REC-SVG-20010904/DTD/svg10.dtd">
<svg version="1.0" xmlns="http://www.w3.org/2000/svg"
 width="924.000000pt" height="925.000000pt" viewBox="0 0 924.000000 925.000000"
 preserveAspectRatio="xMidYMid meet">
<metadata>
Created by potrace 1.16, written by Peter Selinger 2001-2019
</metadata>
<g transform="translate(0.000000,925.000000) scale(0.100000,-0.100000)"
fill="#000000" stroke="none">
<path d="M0 4625 l0 -4625 4445 0 c3107 0 4445 3 4445 11 0 5 -4 8 -9 4 -5 -3
-13 0 -17 7 -4 7 -4 10 1 6 4 -4 16 -3 25 2 15 8 17 6 13 -10 -5 -19 0 -20
166 -20 l171 0 0 4625 0 4625 -4620 0 -4620 0 0 -4625z m5075 4575 c3 -6 12
-10 18 -10 7 0 6 4 -3 10 -10 6 38 9 143 8 131 -1 157 -4 152 -16 -3 -7 -5
-18 -5 -23 0 -5 -10 -8 -22 -8 -17 1 -19 2 -5 6 9 2 17 8 17 13 0 10 -27 3
-46 -11 -6 -5 -31 -6 -55 -4 -24 3 -104 5 -178 5 -94 0 -138 3 -149 12 -12 10
-14 10 -8 0 6 -10 -8 -11 -61 -7 -137 10 -265 15 -588 21 -181 4 -332 8 -334
10 -2 2 248 4 557 4 356 0 563 -4 567 -10z m-2351 -130 c121 -5 223 -13 227
-17 4 -4 10 -29 14 -54 7 -45 6 -46 -17 -43 -12 1 -180 8 -373 15 -192 6 -356
12 -363 13 -18 3 -27 16 -46 65 l-17 43 178 -6 c98 -4 277 -11 397 -16z m1126
-41 c311 -11 571 -22 578 -24 15 -6 7 -25 -11 -25 -7 0 -6 4 3 10 12 8 11 10
-7 10 -17 0 -21 -5 -18 -20 6 -31 14 -40 38 -40 21 1 21 1 -3 16 -14 8 -18 13
-9 10 11 -3 20 4 27 20 15 31 38 22 46 -18 3 -17 4 -33 1 -36 -3 -3 -5 -1 -5
5 0 7 -13 7 -41 -1 -33 -8 -42 -8 -49 4 -9 14 -11 13 -14 -9 0 -5 -4 -13 -8
-17 -11 -11 -10 14 2 36 7 13 5 21 -7 31 -15 13 -16 11 -9 -14 5 -21 4 -27 -5
-21 -9 5 -10 2 -6 -10 5 -13 3 -17 -7 -13 -8 3 -16 1 -18 -5 -3 -7 -12 -7 -28
2 -23 12 -24 12 -12 -3 12 -14 11 -16 -10 -12 -13 2 -126 6 -253 10 -126 3
-372 13 -545 21 -173 7 -336 14 -361 14 -46 0 -47 1 -53 38 -4 20 -9 45 -12
55 -5 17 1 18 113 12 65 -3 372 -15 683 -26z m-1105 -230 c143 -6 264 -14 268
-18 4 -4 10 -24 14 -44 l6 -37 -204 5 c-112 3 -242 8 -289 10 -47 3 -119 5
-161 5 l-77 0 -16 40 c-9 22 -16 43 -16 45 0 8 202 6 475 -6z m1050 -45 c187
-8 348 -14 358 -14 16 0 16 -2 1 -25 -9 -14 -15 -25 -13 -26 18 -3 69 -3 69 1
0 3 21 6 48 6 26 1 41 -1 34 -3 -6 -3 -10 -9 -7 -14 4 -5 -51 -7 -127 -4 -73
2 -252 7 -398 10 -554 11 -640 16 -640 34 0 9 -3 27 -7 40 l-6 23 174 -7 c96
-3 327 -13 514 -21z m-980 -201 c127 -4 234 -6 239 -4 13 3 26 -20 26 -47 l0
-23 -257 7 c-142 3 -276 7 -298 9 -22 1 -61 2 -86 3 -39 2 -48 6 -57 27 -21
46 -19 48 96 41 59 -3 211 -9 337 -13z m980 -28 c55 -2 149 -3 209 -4 120 -1
136 -8 36 -15 -36 -3 -94 -8 -130 -11 -36 -3 -101 -9 -145 -12 -101 -7 -582
-10 -588 -3 -3 3 -9 18 -13 33 l-7 29 269 -7 c148 -4 314 -8 369 -10z m-3338
-62 c2 -6 -1 -14 -6 -18 -19 -11 -12 -25 12 -24 21 0 21 1 2 10 -17 7 -17 8
-2 6 10 -1 18 -6 18 -12 1 -5 4 -14 9 -20 4 -5 2 -15 -5 -22 -17 -15 -28 -4
-14 14 8 9 8 13 1 13 -13 0 -25 -18 -29 -44 -2 -12 1 -16 11 -13 10 4 13 1 9
-9 -3 -7 -3 -14 0 -14 8 0 39 51 41 68 2 9 9 18 16 20 7 3 10 0 6 -6 -4 -6 2
-8 14 -5 11 3 20 10 20 15 0 5 -4 7 -9 4 -5 -3 -12 1 -15 10 -3 8 -2 12 4 9 6
-3 10 0 10 7 0 7 6 2 13 -12 7 -14 9 -27 5 -28 -4 -2 -6 -8 -3 -12 3 -5 0 -12
-6 -16 -8 -4 -9 -3 -5 4 4 8 2 10 -8 6 -23 -9 -8 -32 20 -30 15 0 22 6 19 14
-2 6 0 12 5 12 6 0 11 -8 12 -17 0 -10 2 -23 2 -29 1 -6 9 -19 19 -28 25 -25
40 -56 27 -56 -5 0 -10 5 -10 10 0 6 -11 22 -25 36 -14 14 -23 30 -20 35 4 5
-8 9 -26 9 -26 0 -30 -3 -21 -12 9 -9 6 -16 -16 -31 -15 -10 -20 -17 -10 -14
10 4 18 -1 21 -13 5 -18 3 -18 -19 -3 -13 8 -24 19 -24 23 0 4 -17 15 -39 24
-21 10 -51 27 -67 37 l-29 20 33 -6 c23 -4 31 -2 27 5 -4 6 -13 9 -21 6 -8 -3
-14 -1 -14 4 0 6 -10 6 -26 -1 -15 -5 -29 -7 -32 -4 -3 3 1 5 8 5 10 0 9 5 -3
18 -10 10 -14 22 -10 25 12 12 21 7 28 -15 4 -14 8 -18 12 -10 2 6 10 12 17
12 6 0 12 10 13 22 1 11 7 24 14 29 16 9 42 5 46 -8z m225 -250 c8 -21 21 -54
29 -73 35 -93 161 -291 309 -487 30 -39 70 -96 88 -125 18 -29 41 -64 51 -77
15 -20 18 -21 16 -5 -1 11 -6 28 -12 39 -13 24 -6 46 11 39 8 -3 16 2 19 10 5
12 0 16 -19 16 -14 0 -23 4 -19 10 3 5 12 7 19 4 8 -3 17 0 22 7 5 9 2 10 -9
6 -9 -3 -19 -1 -23 5 -5 8 4 9 29 5 34 -5 37 -4 37 19 0 13 4 24 9 24 6 0 8
10 6 22 -3 12 2 33 11 45 8 13 13 27 10 32 -3 4 -1 37 5 72 6 35 11 72 12 82
1 9 5 17 9 17 4 0 6 -20 4 -45 -3 -34 0 -48 13 -56 15 -10 15 -10 -1 -5 -11 3
-17 -1 -17 -12 0 -9 -2 -34 -4 -55 -3 -20 -1 -39 3 -42 10 -6 19 42 9 52 -4 4
-1 17 8 28 15 19 15 19 9 -6 -6 -28 15 -56 33 -44 7 4 9 -1 5 -12 -5 -17 -5
-17 6 0 6 9 8 27 5 38 -5 14 -2 25 6 30 20 13 31 11 23 -3 -5 -8 -2 -8 10 1 9
8 16 10 15 5 -4 -21 2 -32 19 -37 9 -2 24 -8 32 -11 11 -5 16 0 17 13 1 12 -3
18 -10 16 -7 -3 -22 10 -34 27 -13 18 -23 27 -23 20 0 -17 -38 -15 -56 3 -12
12 -12 15 -2 15 10 0 9 3 -2 10 -12 8 -12 10 3 16 9 3 25 3 34 0 15 -6 15 -8
3 -17 -11 -7 -6 -8 17 -4 25 4 31 2 29 -12 -3 -16 15 -43 27 -43 3 0 9 19 13
43 4 23 9 36 11 30 3 -7 11 -13 19 -13 8 0 14 -8 15 -17 3 -42 -4 -79 -15 -85
-6 -4 -7 -8 -2 -8 5 0 3 -7 -4 -15 -7 -9 -10 -18 -6 -22 3 -3 6 -1 6 6 0 7 5
9 10 6 6 -3 10 1 10 10 0 9 4 14 9 11 5 -4 7 2 4 12 -5 21 13 72 26 72 11 0 3
-38 -13 -60 -6 -8 -6 -12 -2 -8 5 4 16 2 24 -4 12 -10 18 -8 34 12 l20 25 -6
-60 c-4 -41 -3 -54 3 -40 5 11 10 31 10 44 1 17 5 21 17 17 8 -3 13 -2 10 2
-3 5 8 16 25 26 16 9 29 13 29 7 0 -6 7 -8 15 -5 9 4 15 0 15 -8 0 -9 8 -14
23 -12 12 1 25 3 30 3 4 1 7 6 7 12 0 6 -7 9 -15 6 -11 -5 -12 -1 -5 16 5 12
14 65 20 117 16 134 21 160 31 160 5 0 7 -64 5 -142 l-4 -143 14 100 c7 55 13
122 13 148 1 41 3 46 14 35 17 -17 20 -78 4 -78 -9 0 -9 -2 -1 -8 8 -5 9 -42
3 -127 -5 -65 -7 -121 -5 -122 6 -6 26 144 27 195 0 26 6 79 14 117 13 67 14
61 8 -115 -5 -188 -1 -232 12 -105 8 89 15 115 28 115 7 0 8 -41 3 -127 -4
-70 -5 -125 -1 -122 5 5 46 260 48 296 0 8 7 8 22 1 18 -8 21 -19 24 -84 1
-47 -1 -74 -8 -74 -6 0 -11 6 -12 13 -2 39 -18 -38 -18 -91 -1 -47 3 -64 14
-68 8 -4 13 -10 10 -14 -3 -5 -2 -11 3 -14 5 -3 9 0 9 7 2 47 36 253 43 255 4
2 6 22 4 45 l-4 42 11 -44 c7 -28 7 -46 1 -50 -6 -4 -5 -10 3 -18 16 -14 42
14 37 40 -4 18 13 24 23 7 3 -5 2 -10 -4 -10 -6 0 -8 -7 -5 -15 4 -9 -1 -55
-10 -103 -20 -111 -25 -181 -15 -188 5 -3 10 5 11 18 1 13 2 30 3 38 0 8 10
57 20 108 13 65 23 92 33 92 12 0 13 -10 8 -52 -4 -29 -10 -86 -13 -127 -5
-66 -4 -74 10 -68 11 4 14 2 10 -9 -3 -7 -1 -14 5 -14 8 0 23 58 36 140 2 14
7 38 11 53 7 25 9 26 20 11 8 -12 9 -30 4 -58 -12 -61 -11 -122 1 -110 11 11
33 174 24 183 -3 3 -9 -1 -13 -8 -12 -19 -23 32 -15 66 l7 27 9 -23 c5 -15 4
-28 -2 -36 -9 -10 -7 -13 7 -11 38 6 43 -16 33 -130 -5 -59 -8 -109 -7 -111 2
-1 9 26 16 60 7 34 20 94 29 132 9 39 15 74 14 78 -2 5 2 6 7 3 9 -6 8 -37 -3
-116 -2 -14 -7 -56 -11 -95 -4 -38 -9 -73 -11 -77 -3 -5 2 -8 11 -8 9 0 14 4
11 9 -4 5 -2 11 4 13 5 1 13 23 16 48 4 25 11 56 17 70 6 14 9 29 8 34 -1 4 3
14 9 20 5 7 7 15 4 19 -3 3 3 3 13 1 21 -6 22 -14 9 -134 l-7 -65 21 55 c11
30 27 61 36 70 15 14 16 7 10 -80 -11 -158 -11 -194 4 -185 14 8 12 -5 -4 -35
l-14 -24 -16 38 c-9 22 -19 37 -21 34 -7 -7 24 -79 43 -101 14 -16 13 -16 -19
-6 -19 7 -41 18 -50 25 -8 8 -19 14 -24 14 -14 0 44 -41 93 -66 30 -15 40 -24
27 -24 -14 0 -16 -3 -7 -9 14 -9 10 -40 -14 -104 -30 -80 -11 -74 31 10 30 61
45 74 45 39 0 -14 -4 -27 -8 -30 -4 -2 -9 -22 -10 -42 -2 -21 -8 -42 -15 -46
-7 -4 -7 -8 -2 -8 6 0 -1 -9 -15 -20 -16 -12 -41 -20 -67 -20 -24 0 -43 -5
-43 -11 0 -10 40 -7 98 8 22 5 23 3 17 -18 -5 -13 -8 -29 -8 -36 0 -7 -3 -11
-6 -10 -3 1 -8 -2 -9 -8 -2 -5 -8 -15 -12 -20 -5 -6 -19 -42 -31 -80 -13 -39
-27 -73 -32 -76 -5 -4 -11 -21 -13 -38 -3 -23 0 -30 9 -25 8 5 7 2 -2 -9 -11
-14 -11 -20 0 -33 10 -12 4 -11 -23 4 l-36 20 -5 -35 c-4 -20 -4 -54 -1 -77 3
-23 -3 -95 -15 -161 -11 -66 -27 -178 -36 -250 -8 -71 -18 -142 -21 -157 -5
-27 -22 -33 -36 -13 -4 6 -8 -12 -8 -40 0 -38 -3 -46 -11 -35 -8 12 -10 8 -7
-16 3 -23 1 -31 -9 -27 -7 3 -13 9 -13 14 0 5 -9 9 -21 9 -11 0 -18 3 -16 8 3
4 -5 16 -16 27 -11 11 -17 14 -13 7 6 -10 2 -10 -18 0 -16 7 -26 19 -26 32 0
12 -4 27 -9 34 -6 10 -10 9 -14 -7 -3 -12 -1 -19 4 -15 5 3 6 -2 3 -10 -9 -24
-100 50 -108 88 -4 21 -11 27 -24 24 -15 -4 -17 0 -14 30 3 24 1 33 -7 28 -14
-9 -14 4 0 24 8 11 12 12 16 3 8 -21 20 -15 25 11 5 23 3 23 -21 13 -14 -6
-28 -12 -30 -14 -2 -1 -7 -19 -10 -40 -6 -32 -4 -42 16 -63 33 -35 13 -40 -80
-17 -113 27 -110 25 -103 42 3 8 0 15 -6 15 -7 0 -7 4 0 13 6 7 11 51 11 97 1
47 3 104 5 128 2 30 -2 48 -12 59 -11 10 -17 12 -20 4 -6 -18 -22 -13 -22 7 0
11 12 25 28 32 21 10 23 14 10 17 -13 3 -15 12 -11 41 3 20 2 34 -2 30 -4 -4
-15 2 -24 13 -15 19 -16 17 -13 -35 3 -48 1 -56 -14 -56 -14 0 -15 3 -6 12 7
7 12 28 11 47 0 20 -3 31 -5 24 -4 -8 -16 -1 -36 18 -17 16 -37 29 -45 29 -7
0 -16 6 -19 14 -3 8 -12 17 -19 20 -21 8 -6 -23 16 -35 23 -12 25 -29 4 -29
-8 0 -14 5 -13 11 2 6 -2 13 -9 16 -7 3 -13 -10 -16 -34 -2 -24 -4 -12 -5 30
-1 38 -6 66 -10 63 -5 -3 -8 7 -7 22 2 15 0 18 -2 8 -4 -14 -7 -16 -13 -6 -5
8 -12 1 -20 -24 -6 -20 -15 -36 -19 -36 -14 0 -23 -83 -10 -90 8 -6 8 -9 0
-14 -6 -4 -14 1 -18 11 -4 10 -15 24 -25 31 -10 7 -18 19 -18 27 0 10 -17 13
-37 6 -1 -1 8 -11 20 -24 12 -13 25 -22 30 -20 4 3 10 -3 13 -11 8 -22 -14
-46 -34 -39 -15 6 -15 4 1 -14 16 -18 16 -23 2 -49 -8 -16 -15 -23 -15 -16 0
7 -7 21 -16 30 -16 15 -16 13 -10 -32 5 -34 4 -46 -3 -41 -7 3 -10 12 -9 18 4
18 -23 107 -33 107 -4 0 -10 8 -12 18 -3 9 -5 1 -6 -18 0 -23 2 -30 8 -21 12
18 35 -81 27 -114 -7 -28 -26 -34 -26 -9 0 10 -6 14 -15 10 -10 -4 -15 1 -15
16 0 12 -7 29 -16 39 -8 9 -16 31 -16 48 -1 19 -6 31 -15 31 -11 0 -18 26 -14
53 0 4 -5 7 -13 7 -14 0 -46 41 -46 60 0 5 5 10 10 10 6 0 10 -7 10 -15 0 -8
4 -15 10 -15 12 0 3 27 -22 62 -10 14 -18 31 -18 38 0 6 -5 8 -11 5 -6 -4 -8
-13 -5 -21 3 -7 -2 -21 -11 -29 -14 -15 -17 -14 -34 1 -11 9 -20 31 -20 48
l-2 31 -6 -35 c-3 -19 -9 -30 -12 -25 -6 9 -22 69 -23 87 -1 3 -4 10 -8 14 -5
4 -8 -16 -8 -44 0 -29 -3 -52 -7 -52 -5 0 -7 42 -6 92 l1 93 -9 -75 c-13 -116
-18 -124 -14 -22 3 50 3 92 1 92 -2 0 -12 -36 -22 -81 -11 -51 -20 -75 -25
-67 -12 18 -11 41 0 33 6 -3 13 21 17 54 4 40 12 62 22 66 16 6 52 -2 52 -13
1 -4 7 -29 15 -57 14 -50 17 -44 17 28 0 20 3 37 8 37 12 0 18 -24 14 -56 -4
-28 -4 -28 6 -4 20 44 9 73 -30 83 -49 12 -126 10 -151 -3 -24 -13 -34 -8 -26
14 12 31 134 43 207 20 24 -7 24 -7 8 10 -20 19 -23 42 -8 51 11 7 7 131 -5
143 -4 4 -6 -20 -5 -53 3 -76 2 -83 -9 -66 -7 10 -9 6 -8 -15 2 -37 -17 -48
-21 -11 -2 15 -9 27 -18 27 -8 0 -14 3 -14 8 0 4 -24 23 -54 42 -60 38 -86 74
-93 129 l-5 36 18 -25 c28 -39 103 -100 122 -100 6 0 12 -6 15 -12 2 -7 8 -10
12 -6 4 4 -6 18 -22 32 -15 13 -47 41 -70 61 -44 38 -83 109 -83 150 0 22 9
16 75 -52 41 -42 75 -80 75 -84 0 -5 8 -9 18 -9 10 0 13 3 6 8 -6 4 -13 12
-15 18 -4 12 -95 117 -180 209 -53 56 -90 112 -95 144 -2 8 -6 17 -11 20 -12
9 -16 51 -4 51 6 0 11 -5 11 -11 0 -5 19 -30 42 -55 22 -24 49 -56 58 -71 10
-16 32 -39 49 -53 17 -14 31 -28 31 -32 0 -4 23 -31 50 -60 28 -29 50 -56 50
-60 0 -4 5 -8 10 -8 6 0 10 15 8 33 -1 18 1 38 5 44 10 16 -3 94 -14 87 -5 -3
-9 4 -9 15 0 12 6 21 13 21 9 0 9 2 -1 9 -8 4 -14 12 -14 17 1 5 -6 8 -14 6
-8 -2 -14 4 -14 13 0 10 -4 13 -12 8 -7 -4 -5 5 5 20 20 31 22 41 5 31 -6 -4
-8 -3 -5 3 3 5 2 23 -3 39 -4 16 -9 22 -10 14 -1 -8 -5 -4 -9 9 -10 36 -28 37
-36 2 -4 -17 -10 -31 -14 -31 -11 0 -1 53 12 61 11 7 1 43 -17 61 -6 7 -26 37
-44 66 -18 30 -37 59 -43 65 -16 20 -109 158 -109 163 0 7 -62 97 -70 104 -9
6 0 80 9 80 4 0 14 -17 23 -37z m7459 -374 c152 -5 298 -14 325 -18 97 -17
-176 -13 -1076 14 -96 2 -206 6 -245 6 l-70 2 50 8 c62 9 648 3 1016 -12z
m-3190 -108 c6 9 8 2 6 -21 -1 -19 -6 -38 -11 -41 -5 -4 -5 -12 -1 -19 6 -9 9
-9 16 1 10 16 41 19 50 6 4 -6 10 1 14 14 4 13 13 29 20 36 24 23 28 -18 5
-49 -25 -34 -25 -37 0 -31 10 3 19 8 18 12 -2 18 3 29 16 34 10 4 13 1 9 -9
-3 -7 -9 -14 -15 -14 -5 0 -6 -5 -3 -10 4 -6 2 -16 -4 -23 -6 -8 -6 -18 -1
-27 8 -13 10 -13 10 1 0 9 9 27 21 40 19 23 20 23 16 3 -6 -29 33 -25 44 4 5
12 11 22 13 22 3 0 3 -6 0 -14 -3 -7 2 -16 12 -20 11 -4 15 -2 11 8 -4 9 0 12
13 9 11 -3 16 -11 13 -19 -3 -8 1 -14 10 -14 10 0 13 7 10 20 -4 15 0 20 13
20 15 0 16 -2 5 -9 -7 -5 -10 -14 -6 -21 5 -8 10 -9 18 -1 18 18 31 13 16 -6
-12 -14 -12 -15 0 -9 8 5 17 3 22 -5 8 -12 11 -11 22 2 12 16 51 23 41 7 -3
-5 -10 -5 -16 -2 -7 4 -8 2 -4 -4 4 -7 2 -12 -3 -12 -6 0 -11 -5 -11 -10 0 -6
11 -3 24 5 24 16 24 16 19 -7 -4 -22 -4 -22 11 -4 9 11 16 14 16 8 0 -7 8 -12
18 -12 14 -1 14 -3 -5 -19 -13 -11 -23 -23 -23 -27 0 -4 13 4 28 19 16 15 32
24 37 20 4 -5 5 -2 1 5 -5 7 -18 17 -30 22 -19 8 -19 9 7 9 16 1 26 -3 22 -9
-3 -5 1 -10 10 -10 10 0 13 -5 9 -12 -5 -8 -2 -9 10 -5 9 4 15 3 12 -2 -3 -5
6 -17 19 -27 28 -21 33 -37 10 -28 -8 4 -15 4 -15 1 0 -3 25 -13 55 -22 30
-10 55 -22 55 -27 0 -5 -4 -7 -9 -3 -5 3 -12 1 -16 -5 -3 -5 3 -10 14 -10 19
0 26 -11 22 -33 -1 -5 3 -6 9 -2 17 10 39 -14 33 -36 -4 -13 -1 -19 8 -17 8 2
21 -11 29 -29 8 -18 25 -37 38 -44 12 -7 20 -19 18 -26 -3 -7 -1 -13 4 -13 6
0 10 -7 10 -16 0 -8 6 -22 14 -30 13 -12 15 -12 19 4 3 12 5 11 6 -6 0 -12 8
-34 17 -47 9 -14 14 -36 12 -50 -3 -16 0 -29 9 -33 17 -10 23 -62 9 -81 -8
-11 -8 -13 2 -7 7 4 12 1 12 -8 0 -9 4 -16 9 -16 5 0 8 -16 6 -36 -3 -29 1
-37 16 -41 12 -3 19 -14 19 -28 0 -32 10 -56 21 -49 5 3 9 -2 9 -10 0 -9 8
-17 18 -17 16 -1 16 -2 -1 -6 -16 -4 -16 -6 3 -30 25 -32 25 -43 0 -43 -11 0
-20 5 -20 11 0 6 7 8 18 4 13 -5 14 -3 5 6 -18 18 -34 0 -31 -34 2 -18 6 -34
10 -37 3 -3 9 -27 14 -55 6 -44 5 -48 -8 -37 -14 11 -15 8 -13 -18 1 -17 4
-33 7 -35 8 -8 -3 -55 -15 -62 -6 -3 -7 -1 -3 5 4 7 2 12 -3 12 -17 0 -13 -28
7 -40 14 -9 13 -10 -8 -5 -22 5 -23 4 -7 -5 14 -9 15 -15 7 -25 -6 -8 -19 -11
-27 -8 -13 5 -15 2 -8 -13 11 -26 15 -164 5 -164 -5 0 -17 -3 -27 -6 -13 -4
-15 -3 -4 4 7 5 9 12 5 15 -9 5 -69 15 -127 21 -45 5 -40 -10 11 -28 l47 -17
-39 5 c-21 3 -47 13 -57 22 -17 15 -24 13 -20 -8 0 -5 -8 -8 -18 -8 -11 0 -23
-4 -26 -10 -3 -5 -11 -10 -16 -10 -6 0 -8 4 -5 9 4 5 0 12 -6 14 -7 3 0 6 15
6 16 1 26 5 23 10 -4 5 -18 7 -34 4 -65 -11 -98 -10 -124 3 -34 18 -39 18 -32
-1 4 -8 1 -15 -6 -15 -6 0 -8 5 -4 12 5 8 2 9 -11 4 -15 -5 -16 -4 -5 9 11 13
8 14 -21 9 -26 -4 -30 -3 -19 5 8 6 24 11 34 11 11 0 16 3 13 7 -4 3 -25 0
-48 -7 -32 -11 -45 -11 -60 -2 -22 14 -41 16 -19 2 11 -8 8 -9 -13 -8 -15 1
-26 7 -23 13 2 6 -6 11 -18 12 -11 0 -15 -1 -8 -4 19 -7 15 -21 -10 -34 -21
-11 -22 -11 -9 4 23 29 -6 19 -41 -13 -25 -23 -28 -29 -13 -25 16 5 16 3 -2
-6 -13 -7 -23 -16 -23 -21 0 -16 -2 -23 -13 -43 -9 -18 -9 -19 6 -6 10 7 17
10 17 5 -1 -14 -50 -67 -57 -61 -3 3 -16 2 -28 -3 -19 -7 -25 -5 -28 8 -3 9
-6 4 -7 -13 -1 -26 -3 -27 -10 -10 -5 11 -9 14 -9 8 -1 -8 -14 -13 -31 -13
-16 0 -30 -5 -30 -12 0 -6 -3 -8 -6 -5 -4 4 -15 -3 -25 -15 -11 -11 -19 -17
-19 -13 0 4 -9 0 -20 -10 -11 -10 -20 -15 -20 -11 0 4 -7 1 -15 -8 -17 -17
-20 -30 -5 -21 6 3 10 1 10 -4 0 -6 -6 -11 -14 -11 -8 0 -17 -11 -20 -25 -4
-14 -13 -25 -21 -25 -8 0 -16 -9 -16 -20 -1 -11 -2 -24 -3 -30 -2 -14 -42 -41
-50 -33 -3 3 -6 1 -6 -5 0 -7 6 -12 14 -12 17 0 11 -33 -13 -70 -12 -17 -12
-22 -2 -16 10 7 12 2 6 -25 -4 -19 -12 -39 -17 -46 -5 -7 -5 -14 1 -17 16 -10
8 -46 -11 -52 -10 -3 -18 -13 -18 -22 1 -16 2 -15 14 1 13 17 14 16 19 -3 4
-14 0 -20 -11 -20 -10 0 -13 -3 -7 -8 6 -4 9 -20 8 -37 -10 -132 -16 -180 -25
-184 -5 -1 -2 -8 6 -15 17 -13 32 -76 18 -76 -7 0 -6 -11 1 -30 7 -19 15 -26
22 -20 15 13 30 -1 32 -30 2 -21 1 -22 -7 -8 -9 15 -48 19 -42 5 1 -4 2 -14 2
-22 0 -8 6 -15 14 -15 11 0 11 -12 1 -70 -7 -43 -8 -67 -2 -63 10 6 5 -24 -10
-63 -5 -13 -3 -16 10 -11 12 5 17 1 17 -13 0 -11 5 -20 11 -20 5 0 7 -4 4 -10
-3 -5 -2 -10 2 -10 5 0 9 -8 9 -17 1 -10 5 -27 9 -37 7 -16 5 -18 -11 -13 -18
7 -18 6 -2 -6 10 -8 15 -17 11 -20 -3 -4 -7 -15 -8 -25 -3 -26 -27 -72 -36
-67 -4 3 -10 -8 -14 -25 -4 -16 -11 -30 -16 -30 -6 0 -7 4 -4 10 3 6 1 10 -5
10 -7 0 -9 -8 -5 -20 4 -11 2 -20 -4 -20 -6 0 -11 -9 -11 -21 0 -12 -8 -23
-20 -26 -11 -3 -20 -10 -20 -15 0 -5 -4 -6 -10 -3 -5 3 -10 0 -10 -8 0 -11
-10 -12 -52 -6 -28 5 -56 5 -61 2 -6 -3 -7 -1 -3 5 5 8 -2 10 -21 6 -15 -3
-37 -6 -48 -7 -11 -1 -23 -6 -27 -12 -5 -7 -8 -7 -8 0 0 6 -14 11 -30 12 -28
2 -75 28 -107 59 -54 53 -157 76 -213 48 -16 -9 -34 -13 -40 -9 -5 3 -10 1
-10 -4 0 -6 5 -11 12 -11 6 0 21 -9 33 -20 27 -25 97 -40 93 -19 -2 8 7 14 25
14 15 1 27 -3 27 -7 0 -4 3 -7 8 -6 13 3 62 -14 62 -22 0 -4 -6 -13 -14 -19
-12 -10 -15 -8 -19 6 -2 10 -3 6 -1 -9 3 -24 0 -26 -26 -23 -17 2 -33 -2 -41
-11 -10 -12 -9 -13 7 -8 11 3 5 -5 -13 -21 -20 -16 -33 -36 -33 -50 0 -14 -7
-25 -20 -28 -17 -4 -19 -1 -14 21 l5 27 -15 -25 c-11 -19 -15 -21 -16 -8 0 9
-5 20 -11 24 -8 4 -9 0 -4 -15 5 -17 2 -21 -17 -19 -23 2 -83 -30 -74 -40 3
-3 12 1 21 8 9 8 15 8 15 2 0 -15 -18 -25 -52 -27 -40 -4 -56 -21 -60 -62 -2
-20 -9 -38 -16 -41 -11 -3 -12 0 -3 16 17 33 13 37 -9 9 -11 -14 -20 -30 -20
-35 0 -5 -7 -13 -16 -16 -12 -5 -15 -2 -10 11 6 15 3 14 -16 -3 -13 -11 -30
-20 -38 -19 -8 1 -21 3 -27 3 -15 2 -18 32 -4 32 5 0 11 -8 13 -17 3 -15 8
-14 30 10 15 16 31 26 36 23 5 -3 15 6 22 19 7 13 16 23 19 21 3 -2 6 9 6 24
0 21 -3 26 -12 18 -7 -6 -11 -14 -8 -18 3 -5 1 -11 -3 -14 -5 -3 -9 4 -8 17 1
13 12 27 29 35 16 8 31 20 34 28 9 25 24 15 18 -13 -3 -18 5 -8 21 25 14 29
23 56 20 59 -3 3 -8 -6 -12 -21 -5 -22 -26 -39 -23 -18 5 30 -5 31 -17 0 -14
-34 -41 -52 -91 -63 -15 -4 -17 21 -3 30 6 3 10 10 10 16 0 5 -4 9 -10 9 -5 0
-10 -7 -10 -15 0 -8 -12 -26 -27 -41 -16 -15 -22 -23 -14 -19 9 5 12 3 9 -6
-3 -8 -11 -13 -17 -12 -6 2 -11 -8 -11 -21 0 -13 -5 -26 -11 -28 -5 -2 -11
-10 -13 -18 -12 -71 -41 -86 -41 -22 1 27 6 47 13 50 15 5 15 -3 1 -30 -6 -11
-8 -22 -6 -25 8 -7 29 36 34 71 l5 31 -24 -22 c-36 -34 -44 -28 -14 12 38 50
24 44 -16 -7 -18 -23 -28 -39 -22 -35 7 4 15 0 18 -9 3 -8 2 -13 -3 -10 -5 3
-11 -3 -14 -14 -3 -11 -10 -20 -17 -20 -6 0 -9 4 -6 9 4 5 0 12 -6 14 -10 4
-9 8 2 16 13 9 13 11 -1 11 -23 0 -30 -11 -18 -26 6 -8 9 -21 5 -29 -4 -11 -2
-14 6 -9 8 5 9 0 5 -17 -4 -13 -7 -27 -7 -31 0 -3 -14 -9 -31 -13 -24 -5 -30
-11 -26 -26 3 -11 0 -19 -6 -19 -7 0 -5 -5 3 -10 13 -8 12 -12 -8 -25 -12 -9
-20 -20 -17 -25 3 -4 -2 -24 -10 -43 -14 -34 -14 -35 7 -29 16 4 20 2 15 -10
-3 -9 0 -24 7 -34 13 -17 14 -16 25 4 7 13 16 20 20 18 4 -3 8 1 8 9 0 10 -5
11 -19 4 -10 -5 -18 -14 -18 -20 0 -6 -5 -7 -11 -4 -16 10 32 57 53 52 19 -5
33 19 16 29 -7 4 9 17 38 30 41 19 49 27 50 51 0 20 5 27 16 25 9 -1 19 2 23
8 3 5 1 10 -6 10 -7 0 -10 2 -7 5 3 3 13 3 22 -1 13 -5 11 -11 -16 -35 -18
-16 -28 -29 -22 -29 5 0 19 8 30 19 11 10 30 24 43 30 18 10 20 15 10 27 -9
12 -9 13 3 9 8 -3 21 1 28 10 11 13 10 15 -6 9 -18 -5 -18 -5 -1 6 27 17 42
-1 27 -30 -8 -14 -8 -20 -1 -16 6 4 18 24 27 44 10 20 22 43 28 51 6 7 11 19
11 25 0 21 43 66 61 65 17 -1 17 -2 2 -6 -10 -2 -18 -13 -18 -24 0 -10 -3 -19
-8 -19 -8 0 -23 -26 -42 -72 -7 -16 -15 -28 -20 -28 -4 0 -10 -9 -13 -20 -4
-15 0 -20 16 -20 11 0 17 3 14 7 -4 3 3 17 15 30 18 19 20 26 9 32 -17 11 2
23 23 15 14 -5 14 -9 -4 -33 -14 -21 -16 -28 -5 -28 8 0 12 4 9 8 -2 4 0 10 6
14 5 3 10 0 11 -7 1 -7 4 -2 8 12 5 14 4 33 -1 43 -5 11 -5 17 2 17 5 0 10 5
10 11 0 5 -4 7 -10 4 -18 -11 -10 22 10 40 11 10 17 22 13 28 -3 6 -1 7 5 3 8
-5 12 1 12 16 0 34 12 46 35 37 11 -4 14 -8 8 -8 -7 -1 -13 -7 -13 -15 0 -7
-10 -25 -21 -40 -12 -15 -19 -30 -15 -33 3 -3 1 -15 -5 -26 -8 -14 -8 -17 0
-13 6 4 14 -6 18 -24 l8 -32 20 22 c11 12 15 21 10 20 -24 -5 -35 2 -35 22 0
21 0 21 16 2 8 -10 12 -13 9 -6 -4 8 2 22 14 33 20 19 20 19 20 -8 -1 -75 4
-114 12 -101 5 7 9 9 9 3 2 -22 39 82 39 111 1 16 8 39 16 50 8 10 14 26 14
34 0 10 -3 9 -11 -5 -6 -11 -20 -31 -32 -44 -11 -13 -15 -21 -8 -17 15 9 15
-4 2 -39 -5 -14 -14 -23 -20 -20 -7 4 -7 12 0 25 11 21 3 53 -11 44 -5 -3 -9
0 -9 6 0 6 7 13 15 16 8 4 12 11 8 18 -4 7 -1 7 7 -1 10 -9 17 -10 27 -2 18
16 16 30 -3 22 -14 -5 -14 -3 -2 16 9 15 20 21 36 18 12 -2 25 0 28 5 4 6 10
5 16 -3 8 -11 9 -10 4 3 -3 10 -1 20 5 23 5 4 7 10 4 15 -3 4 2 11 11 14 9 3
12 11 8 18 -5 10 -4 10 5 2 8 -7 9 -18 2 -35 -5 -14 -7 -38 -4 -55 3 -22 2
-26 -6 -14 -8 11 -11 4 -11 -32 0 -27 -4 -48 -9 -48 -5 0 -7 10 -4 23 4 20 2
19 -14 -5 -10 -16 -21 -28 -25 -28 -5 0 -8 -5 -8 -11 0 -5 4 -8 9 -5 5 4 6 -4
3 -16 -5 -20 -8 -18 -18 17 -7 22 -13 31 -13 20 -1 -11 9 -41 22 -67 20 -41
24 -45 40 -33 10 7 18 17 17 21 -1 5 3 10 9 12 6 2 11 -5 11 -15 0 -14 2 -15
9 -4 7 11 9 11 14 0 4 -10 6 -8 6 4 1 10 -6 20 -14 23 -8 4 -12 10 -9 15 10
16 22 9 32 -18 9 -27 9 -28 16 -5 4 12 11 22 16 22 4 0 10 11 12 25 3 13 1 22
-3 19 -5 -3 -9 0 -9 7 0 15 42 59 58 59 15 0 16 12 1 27 -14 14 13 63 34 63 9
0 9 -2 0 -8 -16 -10 -2 -67 17 -67 8 0 19 6 23 13 4 6 17 12 27 12 10 0 23 7
28 16 10 17 55 16 96 -1 13 -6 17 -5 13 2 -11 18 46 23 77 7 16 -8 35 -14 42
-14 7 0 15 -4 19 -9 3 -6 -7 -6 -27 -1 -28 8 -31 7 -16 -4 10 -7 15 -16 11
-19 -9 -9 -33 13 -33 30 0 8 -4 12 -9 8 -5 -3 -12 -1 -16 4 -7 12 -45 -18 -45
-35 0 -7 -8 -15 -17 -17 -15 -4 -14 -6 5 -12 17 -6 20 -10 11 -16 -7 -4 -19
-3 -26 3 -9 7 -13 7 -13 -1 0 -6 11 -16 24 -23 14 -6 28 -17 31 -26 4 -12 3
-13 -10 -2 -22 18 -19 6 10 -36 14 -20 23 -39 21 -42 -3 -2 2 -11 10 -20 14
-13 17 -13 26 -1 8 11 9 11 4 -3 -3 -10 -1 -20 4 -23 6 -4 10 2 10 12 0 15 4
14 20 -7 11 -14 20 -21 20 -16 0 6 6 1 14 -10 11 -14 14 -15 14 -4 -1 8 0 24
0 34 2 18 4 17 22 -4 18 -21 20 -22 21 -4 1 10 0 28 -1 39 -1 11 1 17 6 13 4
-5 7 -24 6 -45 -1 -33 0 -35 13 -17 11 15 15 16 16 4 0 -8 5 -2 9 13 5 16 5
38 0 50 -8 19 -9 17 -10 -13 -1 -19 -4 -29 -7 -22 -3 7 -2 30 2 50 l8 37 11
-33 c6 -18 15 -30 19 -26 13 13 7 -22 -5 -35 -10 -11 -10 -14 0 -18 6 -3 12
-11 12 -19 0 -11 5 -11 25 -2 17 8 24 17 20 27 -3 11 0 9 10 -3 8 -11 15 -23
15 -28 0 -4 5 -8 11 -8 8 0 10 19 7 56 -4 46 -3 54 7 41 7 -9 11 -38 9 -64 -2
-46 -2 -46 13 -23 l14 25 -5 -30 -5 -30 14 30 c10 21 14 24 15 12 0 -11 9 -21
20 -24 11 -3 20 -9 20 -14 0 -5 5 -9 10 -9 6 0 10 8 10 18 0 9 4 23 9 30 6 10
10 7 13 -12 3 -14 1 -23 -3 -20 -5 3 -9 -2 -9 -10 0 -10 6 -13 16 -9 11 4 15
15 12 35 -3 18 0 27 6 25 6 -2 11 -13 11 -24 0 -10 8 -27 18 -37 9 -10 17 -21
17 -26 0 -4 9 -6 20 -3 19 5 19 6 4 18 -13 9 -14 14 -5 19 15 9 44 -13 38 -28
-3 -7 4 -12 14 -12 11 0 19 6 19 13 0 7 7 13 15 13 13 0 20 -19 16 -44 -1 -5
5 -4 13 4 14 10 16 9 16 -7 0 -19 23 -25 46 -11 5 4 16 -3 23 -14 11 -18 11
-20 -2 -15 -18 7 -17 -14 2 -37 7 -9 10 -16 7 -16 -4 0 5 -11 20 -25 29 -27
54 -34 34 -10 -7 8 -10 16 -6 16 23 5 33 4 46 -2 11 -5 15 -1 15 16 0 13 -3
21 -6 19 -4 -2 -12 3 -19 11 -11 13 -10 18 6 30 17 12 21 11 37 -8 l18 -22
-10 22 c-15 31 -14 35 9 23 16 -9 20 -8 20 5 0 9 -4 14 -9 11 -11 -7 -23 22
-15 36 4 6 2 13 -4 17 -6 4 -12 43 -13 89 -1 45 -6 85 -12 89 -6 4 -7 1 -3 -8
4 -8 0 -5 -8 5 -9 11 -16 28 -16 38 0 9 -13 39 -30 65 -16 26 -30 40 -30 32 0
-7 -16 5 -36 29 -20 23 -41 42 -47 42 -7 -1 -1 -10 12 -21 14 -11 30 -30 36
-42 6 -12 18 -22 26 -21 8 1 15 -7 15 -17 0 -11 -4 -19 -8 -19 -4 0 -8 4 -8
10 0 5 -13 16 -30 25 -16 9 -30 11 -30 6 0 -5 9 -12 19 -16 10 -3 21 -15 24
-25 4 -17 -1 -16 -33 10 -27 21 -41 27 -46 19 -5 -8 -3 -9 6 -4 9 5 11 4 6 -3
-4 -7 -1 -12 8 -12 9 0 16 -4 16 -10 0 -5 -6 -10 -14 -10 -14 0 -27 22 -31 52
-2 19 -43 57 -62 58 -23 0 -24 -21 -1 -40 13 -11 19 -19 14 -20 -5 0 -18 8
-29 18 -15 12 -21 14 -24 4 -3 -6 -9 -9 -14 -6 -6 3 -2 12 8 20 16 12 16 15 3
24 -8 5 -20 8 -27 5 -7 -2 -10 2 -6 11 3 8 -1 14 -8 14 -11 0 -11 2 1 10 12 8
12 10 -3 16 -10 4 -23 2 -30 -5 -8 -8 -8 -11 0 -11 6 0 14 -7 17 -16 6 -15 4
-15 -11 -3 -15 12 -16 12 -10 -4 4 -11 1 -20 -8 -23 -10 -4 -12 -17 -9 -47 3
-30 2 -38 -6 -27 -5 8 -10 27 -10 42 0 15 -5 30 -10 33 -8 5 -8 11 0 20 12 15
0 53 -25 78 -9 10 -12 17 -6 17 6 0 11 9 11 19 0 11 5 21 12 23 14 5 28 104
16 116 -5 5 -11 34 -13 66 -3 32 -11 68 -17 80 -7 11 -13 27 -14 35 -2 8 -9
18 -16 22 -10 7 -10 9 2 9 11 0 9 4 -5 12 -29 17 -45 35 -38 42 3 3 -6 15 -20
27 -15 11 -27 26 -27 34 0 13 -28 30 -43 26 -5 -1 -11 8 -14 20 -4 14 -8 17
-13 9 -7 -12 -23 35 -19 56 4 21 -2 26 -18 13 -15 -13 -15 -12 0 18 9 17 22
34 29 37 10 5 10 7 1 12 -7 3 -13 13 -14 22 0 12 -3 9 -10 -7 -13 -32 -35 -13
-41 35 -4 32 -3 34 9 18 8 -11 12 -27 9 -37 -2 -9 0 -15 5 -11 5 3 9 12 9 20
0 8 5 14 11 14 8 0 8 4 0 14 -9 10 -8 15 4 20 8 3 15 0 15 -6 0 -6 3 -9 6 -5
3 3 3 15 -1 28 -6 17 -9 19 -17 8 -7 -10 -8 -7 -4 12 3 14 0 34 -8 44 -7 10
-12 26 -11 34 1 9 0 10 -2 4 -8 -23 -23 -14 -24 15 -2 35 -3 43 -13 65 -5 9
-4 23 1 30 13 16 0 63 -16 59 -7 -1 -10 2 -6 8 3 6 9 8 13 6 4 -2 7 9 7 24 0
18 -4 25 -10 20 -12 -10 -13 39 -1 58 4 7 5 19 2 27 -3 9 1 15 9 15 8 0 15 -9
15 -21 0 -11 4 -18 9 -15 8 5 20 -54 21 -109 1 -18 16 -34 31 -35 4 0 9 9 12
20 3 13 1 18 -6 13 -6 -4 -8 0 -4 10 4 10 1 17 -6 18 -9 0 -9 2 1 6 6 2 12 9
12 14 0 6 -4 7 -10 4 -14 -9 -13 1 3 17 19 21 37 56 37 72 0 8 7 17 16 20 9 4
14 13 10 21 -3 8 -1 15 4 15 6 0 10 7 10 15 0 8 10 20 22 26 l21 12 -21 11
c-17 9 -20 14 -10 24 7 7 9 12 4 12 -4 0 0 10 8 22 21 29 20 39 -1 32 -10 -3
-6 3 10 12 15 10 28 28 28 39 1 17 2 17 6 3 6 -24 11 -23 40 8 13 14 29 24 36
21 14 -5 39 18 29 28 -4 4 5 4 21 0 16 -4 33 -2 42 5 8 6 19 9 25 5 8 -5 15
13 12 36 -2 11 142 -1 149 -13 4 -7 9 -7 13 1 4 6 12 11 18 11 7 0 7 -4 0 -12
-8 -10 3 -12 50 -10 46 3 59 1 53 -8 -6 -9 2 -11 29 -8 26 3 36 0 36 -10 0
-11 9 -13 36 -9 25 4 37 2 41 -9 3 -7 13 -14 24 -14 10 0 23 -8 28 -17 7 -11
14 -14 18 -8 10 12 63 15 63 3 0 -4 -8 -8 -17 -8 -15 -1 -15 -3 3 -13 12 -7
19 -17 17 -23 -2 -6 3 -17 12 -24 12 -10 13 -16 3 -28 -11 -13 -10 -15 5 -9
20 7 23 -3 5 -21 -7 -7 -8 -12 -3 -12 6 0 18 14 27 30 9 17 24 30 33 30 9 0
14 -4 11 -9 -3 -4 7 -6 22 -3 25 5 26 4 9 -12 -9 -10 -17 -22 -17 -29 0 -6 6
-4 13 5 6 9 23 19 37 22 22 5 22 4 -3 -7 -23 -9 -27 -16 -22 -37 3 -14 2 -20
-2 -14 -5 6 -18 7 -33 3 -14 -4 -19 -7 -11 -8 7 -1 11 -7 8 -15 -9 -22 24 -29
45 -9 22 20 45 25 54 12 3 -5 -2 -9 -10 -9 -9 0 -16 -6 -16 -14 0 -8 -6 -17
-12 -19 -8 -4 -7 -6 3 -6 23 -1 32 -29 11 -34 -11 -3 -9 -5 8 -7 23 -1 23 -2
5 -10 -11 -5 -14 -9 -7 -9 17 -1 15 -26 -3 -41 -12 -10 -18 -10 -30 0 -8 6
-23 9 -36 5 -14 -5 -19 -4 -15 4 4 7 1 9 -8 5 -9 -3 -28 6 -46 23 -60 55 -68
61 -116 86 -59 31 -113 54 -174 73 -65 20 -84 17 -25 -5 103 -38 115 -43 115
-53 0 -5 5 -6 10 -3 6 3 10 1 10 -4 0 -15 -6 -14 -35 5 -14 9 -25 13 -25 9 0
-5 -9 0 -19 9 -12 11 -21 14 -26 7 -3 -6 -11 -11 -16 -11 -6 0 -8 4 -5 9 9 14
-12 17 -127 19 -63 1 -129 -4 -160 -12 -28 -7 -53 -10 -55 -6 -2 5 -15 2 -30
-6 -35 -18 -50 -18 -32 0 19 18 102 46 135 46 14 0 25 4 25 10 0 5 26 11 58
13 31 2 20 3 -24 1 -122 -4 -204 -42 -264 -120 -14 -18 -13 -18 10 1 14 11 28
24 32 30 4 5 10 6 15 2 4 -4 -6 -21 -22 -36 -55 -52 -77 -83 -81 -115 -3 -17
-1 -26 3 -21 9 11 43 15 145 18 36 1 64 5 61 10 -3 5 -37 7 -77 6 -74 -4 -106
5 -87 24 7 7 15 6 27 -4 16 -13 17 -11 11 16 -3 17 -4 24 -1 17 5 -10 10 -9
25 4 10 9 19 13 19 9 0 -5 11 2 25 15 14 13 28 21 31 17 4 -3 13 0 21 8 26 26
38 17 41 -31 3 -59 15 -81 49 -88 16 -4 39 -9 53 -12 14 -4 42 -9 63 -11 23
-3 37 -10 37 -19 0 -8 5 -14 11 -14 5 0 7 -5 3 -12 -4 -7 -3 -8 4 -4 9 5 9 13
2 26 -9 17 -6 20 22 28 19 5 42 21 53 38 l21 31 17 -24 c10 -13 24 -23 32 -23
13 0 15 -25 2 -35 -4 -3 -5 -2 -2 2 3 3 0 12 -6 19 -8 10 -14 9 -29 -4 -15
-12 -17 -19 -8 -29 6 -7 8 -16 4 -20 -3 -3 -6 -1 -6 6 0 8 -5 7 -16 -3 -8 -9
-20 -14 -25 -11 -5 4 -9 -1 -9 -9 0 -8 5 -18 10 -21 6 -3 10 -3 10 2 0 4 19 7
42 5 24 -2 51 -3 61 -3 12 0 17 -5 13 -14 -3 -9 0 -12 10 -8 9 3 14 -2 14 -16
0 -22 24 -29 36 -10 3 6 15 9 25 6 12 -3 19 0 19 10 0 8 4 12 9 8 5 -3 16 1
24 9 8 8 16 14 18 13 3 -1 1 2 -3 7 -16 20 -7 24 20 10 43 -22 61 -17 30 9
-18 15 -28 32 -27 47 1 14 3 18 6 9 3 -14 69 -38 115 -42 9 -1 14 -5 11 -10
-3 -5 4 -11 16 -14 11 -3 18 -10 14 -16 -11 -19 -12 -58 0 -50 6 4 8 1 5 -9
-4 -10 0 -14 14 -14 15 1 21 -6 24 -27 1 -16 10 -40 20 -54 14 -22 14 -25 1
-20 -18 7 -37 -11 -30 -29 3 -8 0 -14 -6 -14 -7 0 -5 -9 5 -25 13 -20 13 -25
3 -25 -8 0 -3 -6 11 -13 22 -11 42 -57 25 -57 -4 0 -25 19 -47 43 l-39 42 27
-40 c15 -22 33 -44 39 -50 7 -5 17 -20 24 -33 7 -12 15 -21 19 -18 4 2 8 -7 8
-20 2 -21 -2 -19 -36 19 -30 32 -42 39 -50 30 -9 -8 -8 -11 5 -10 10 1 20 -4
23 -12 3 -9 0 -11 -8 -6 -9 5 -11 4 -6 -4 4 -6 12 -8 18 -5 6 4 8 -1 3 -16 -6
-18 -4 -22 8 -17 15 6 33 -20 22 -31 -3 -3 -5 1 -5 9 0 12 -2 12 -9 0 -6 -9
-3 -21 10 -35 19 -19 19 -21 3 -33 -10 -7 -13 -13 -8 -13 6 0 8 -16 6 -35 -3
-21 0 -35 7 -35 6 0 11 -5 11 -11 0 -5 -4 -7 -10 -4 -6 4 -10 -6 -10 -24 0
-16 -4 -33 -10 -36 -6 -4 -7 1 -4 12 5 15 4 16 -5 3 -7 -10 -11 -11 -11 -2 0
6 -4 12 -10 12 -18 0 -10 -16 14 -30 24 -12 24 -13 5 -33 -14 -16 -17 -30 -14
-61 4 -31 3 -36 -4 -21 -8 17 -10 14 -10 -17 -1 -21 -5 -38 -11 -38 -5 0 -7
-6 -4 -13 3 -8 -2 -20 -11 -27 -20 -17 -19 -31 3 -24 16 5 16 5 0 -9 -10 -8
-18 -22 -18 -32 0 -10 -10 -26 -22 -37 -13 -11 -23 -23 -23 -26 0 -7 -41 -98
-68 -152 -8 -16 -20 -24 -33 -22 -14 2 -22 -7 -30 -33 -6 -19 -7 -35 -3 -35 5
0 9 6 9 14 0 8 4 17 9 20 7 5 7 -13 -2 -108 -2 -16 -10 -34 -19 -40 -8 -6 -18
-23 -22 -38 -3 -16 -12 -28 -19 -28 -8 0 -7 -3 2 -9 12 -8 12 -13 -1 -33 -23
-35 -30 -71 -12 -64 8 3 14 1 14 -4 0 -6 -4 -10 -10 -10 -5 0 -10 -9 -10 -20
0 -11 -4 -20 -10 -20 -5 0 -10 8 -10 18 0 13 -2 14 -9 3 -5 -7 -14 -10 -20 -7
-6 4 -11 2 -11 -3 0 -6 9 -11 20 -11 22 0 25 -7 11 -29 -7 -11 -10 -10 -18 4
-9 16 -11 16 -16 1 -4 -10 -3 -15 3 -11 11 7 14 -38 3 -48 -3 -4 -12 -2 -20 4
-23 20 -14 -6 19 -52 20 -29 24 -38 10 -25 -17 15 -22 16 -22 5 0 -8 6 -21 13
-28 6 -8 0 -6 -15 3 -20 13 -27 14 -31 4 -3 -11 -8 -11 -26 0 -12 7 -21 8 -21
2 0 -5 5 -10 10 -10 12 0 30 -41 23 -53 -3 -5 -16 2 -30 15 l-24 23 11 -29 c6
-16 12 -44 15 -62 4 -31 2 -33 -15 -24 -27 14 -25 -2 1 -18 16 -10 18 -17 10
-25 -8 -8 -16 -5 -32 9 l-22 19 17 -32 c22 -43 20 -47 -7 -26 -16 11 -22 25
-20 38 4 16 2 15 -9 -5 -8 -14 -11 -27 -7 -30 3 -3 9 -16 13 -30 6 -21 5 -22
-4 -7 -6 9 -19 17 -28 17 -16 -1 -16 -1 1 -11 23 -13 22 -29 -3 -29 -19 0 -26
19 -21 58 1 6 -2 12 -8 12 -5 0 -12 17 -16 38 -3 20 -11 44 -16 52 -8 12 -9
11 -5 -5 2 -11 7 -42 10 -70 l6 -50 -20 39 c-11 22 -25 43 -32 47 -6 4 -8 14
-5 22 4 11 0 13 -16 9 -12 -3 -16 -7 -10 -9 8 -3 11 -20 8 -51 -5 -47 -5 -47
6 -12 7 19 13 30 16 24 2 -6 -1 -23 -7 -38 -9 -26 -11 -26 -39 -12 -27 14 -41
13 -41 -5 0 -5 6 -6 13 -3 7 2 21 -2 32 -10 19 -14 19 -15 -4 -9 -33 8 -20
-11 18 -27 16 -6 32 -18 35 -26 8 -20 -8 -17 -29 6 -10 11 -25 20 -32 20 -8 0
-22 8 -31 18 -10 10 -14 13 -9 6 4 -7 1 -14 -9 -18 -15 -6 -15 -8 0 -31 18
-28 21 -39 6 -30 -5 3 -10 2 -10 -3 0 -6 7 -12 15 -16 8 -3 15 -12 15 -20 0
-9 -6 -13 -14 -10 -7 3 -20 -2 -29 -10 -8 -8 -17 -12 -21 -9 -3 4 -6 1 -6 -5
0 -6 5 -14 10 -17 6 -3 10 -11 10 -17 0 -6 -9 -1 -20 12 -11 13 -23 21 -26 18
-3 -3 2 -12 10 -20 11 -12 12 -18 3 -27 -9 -10 -7 -17 12 -32 13 -10 18 -19
11 -19 -18 0 -43 29 -37 44 4 9 -2 13 -18 12 -20 -1 -22 -3 -11 -16 7 -8 16
-23 19 -33 6 -16 5 -16 -18 -1 -14 9 -22 20 -19 25 3 5 -2 9 -10 9 -8 0 -18
-5 -22 -12 -5 -7 -3 -8 6 -3 9 6 10 1 5 -16 -5 -18 -4 -20 4 -9 8 12 11 11 17
-5 4 -11 16 -31 28 -45 l21 -25 -25 21 c-43 36 -53 39 -34 8 10 -16 23 -32 29
-36 6 -5 3 -8 -7 -8 -10 0 -18 6 -18 14 0 8 -7 17 -16 20 -8 3 -12 2 -9 -4 3
-6 0 -10 -7 -10 -10 0 -9 -3 2 -10 8 -5 11 -12 7 -16 -4 -4 -2 -13 4 -21 6 -7
7 -13 2 -13 -5 0 -17 9 -26 21 -10 11 -21 18 -25 14 -4 -4 -1 -10 6 -12 14 -5
17 -33 3 -33 -6 0 -13 5 -16 10 -5 8 -11 7 -21 -1 -11 -9 -22 -6 -50 10 -20
12 -39 20 -42 17 -2 -3 12 -15 32 -27 20 -11 36 -26 35 -32 0 -8 -2 -8 -6 1
-2 6 -12 12 -21 12 -14 0 -14 -2 -3 -9 8 -5 10 -14 6 -22 -6 -8 -4 -11 7 -7 8
4 20 -2 27 -14 12 -19 10 -19 -21 -13 -44 9 -50 17 -40 46 8 20 4 29 -24 56
-41 39 -42 36 -9 -18 l26 -40 -28 18 c-26 17 -27 17 -20 -1 6 -14 4 -17 -8
-12 -8 3 -23 9 -32 12 -15 5 -16 4 -3 -5 12 -9 13 -12 1 -20 -9 -6 -10 -11 -2
-15 6 -4 11 -2 11 3 0 20 31 11 58 -16 15 -15 28 -26 30 -25 9 7 23 -2 40 -25
l20 -28 -29 0 c-17 0 -29 5 -29 13 0 8 5 10 13 6 6 -4 -4 7 -23 24 -44 39 -56
40 -33 5 l17 -28 -27 24 c-22 20 -28 21 -32 9 -4 -11 -15 -13 -41 -9 -19 3
-35 9 -34 14 0 4 0 12 0 17 0 6 5 10 11 10 5 0 7 -5 4 -10 -4 -6 5 -10 21 -10
l28 0 -34 30 c-18 17 -41 30 -50 30 -9 0 -21 5 -28 12 -9 9 -15 9 -24 0 -9 -9
-9 -12 0 -12 6 0 9 -7 5 -16 -6 -16 -7 -16 -18 0 -7 9 -16 16 -21 16 -4 0 -3
-5 4 -12 15 -15 16 -32 2 -23 -18 11 -11 -1 12 -21 12 -10 18 -13 14 -6 -5 8
0 12 14 12 12 0 19 -4 15 -9 -3 -5 -1 -12 5 -16 5 -3 10 -16 9 -28 0 -21 -1
-21 -10 -2 -8 17 -9 16 -4 -7 3 -14 7 -33 11 -41 3 -8 -2 -17 -12 -21 -15 -6
-15 -4 -3 11 12 14 12 16 -1 11 -13 -5 -15 1 -12 28 4 28 1 33 -12 28 -10 -4
-16 -1 -16 7 -1 9 -6 7 -16 -6 -15 -20 -15 -20 -34 2 -16 20 -19 21 -30 8 -11
-13 -10 -14 5 -9 15 6 17 3 12 -15 -4 -17 -2 -21 9 -17 8 3 14 1 14 -4 0 -6
-10 -10 -22 -10 -29 0 -18 -9 16 -12 18 -2 25 -7 21 -16 -3 -8 -5 -18 -5 -23
0 -5 -4 -9 -10 -9 -5 0 -10 7 -10 16 0 9 -9 18 -20 21 -11 3 -20 9 -20 14 0 5
-7 9 -15 9 -8 0 -15 5 -15 12 0 6 -3 8 -7 5 -8 -8 38 -53 50 -49 7 2 31 -48
27 -57 -1 -2 5 -8 14 -13 23 -13 20 -27 -6 -20 -16 4 -19 2 -13 -8 6 -10 4
-12 -10 -7 -14 6 -17 3 -13 -18 6 -29 -6 -33 -21 -7 -8 13 -9 10 -5 -15 4 -22
3 -33 -5 -33 -7 0 -10 4 -6 9 3 5 0 13 -6 16 -6 4 -20 21 -31 39 -17 26 -19
27 -15 8 8 -33 -2 -59 -15 -40 -7 9 -8 3 -4 -17 5 -22 4 -26 -4 -15 -5 8 -10
27 -10 43 0 15 -4 27 -10 27 -17 0 30 68 50 73 11 3 20 0 20 -6 0 -6 2 -8 5
-6 2 3 0 18 -4 35 -8 26 -9 26 -10 5 -1 -16 -6 -21 -15 -18 -8 3 -17 -2 -21
-11 -5 -14 -7 -14 -15 -2 -8 12 -10 10 -10 -8 0 -12 -7 -25 -15 -29 -14 -5
-14 -8 -1 -28 16 -25 25 -90 13 -101 -4 -4 -7 0 -7 10 0 10 -5 14 -12 10 -8
-5 -9 3 -5 29 4 25 1 39 -9 48 -13 11 -18 6 -15 -14 1 -5 -3 -6 -8 -3 -5 3
-13 25 -17 49 l-7 42 -9 -30 c-8 -27 -13 -56 -18 -110 -1 -18 -2 -17 -11 4 -7
18 -5 37 6 70 8 24 15 52 14 60 0 9 -10 -13 -22 -49 -12 -36 -28 -74 -35 -85
-11 -18 -12 -16 -7 15 4 23 3 30 -3 22 -7 -11 -11 -8 -14 12 -3 14 0 30 6 36
8 8 6 9 -6 5 -22 -9 -23 3 -3 25 13 15 13 17 0 17 -8 0 -15 -5 -15 -11 0 -6
-4 -5 -8 2 -6 9 -13 -1 -21 -29 -10 -31 -15 -39 -22 -28 -5 8 -9 22 -9 32 0
10 -5 15 -11 12 -6 -4 -8 -13 -5 -21 3 -8 1 -14 -4 -14 -5 0 -6 -17 -3 -37 5
-37 5 -38 -11 -15 -10 12 -14 27 -10 34 4 7 3 8 -4 4 -7 -4 -9 -18 -6 -32 3
-13 2 -24 -3 -24 -5 0 -9 10 -10 22 -1 11 -7 25 -14 29 -7 4 -12 24 -11 44 1
21 -3 33 -9 30 -5 -4 -9 -12 -8 -18 3 -29 -3 -42 -10 -22 -5 12 -4 28 2 40 7
11 12 30 14 43 1 19 -1 21 -12 12 -8 -6 -12 -17 -9 -24 3 -8 -2 -20 -10 -29
-9 -9 -16 -26 -17 -39 l0 -23 -10 24 c-5 14 -7 31 -5 38 3 7 0 13 -6 13 -7 0
-9 -13 -5 -35 8 -47 0 -44 -13 5 -6 22 -15 38 -19 35 -5 -2 -3 -22 5 -42 15
-43 19 -104 4 -68 -7 19 -8 19 -18 -5 -5 -14 -8 -28 -5 -32 2 -4 -3 -5 -12 -1
-9 3 -12 9 -7 12 15 10 27 55 12 46 -7 -4 -4 5 6 21 11 15 13 25 7 21 -10 -6
-13 2 -13 29 l0 37 -19 -24 c-10 -13 -22 -35 -26 -48 -5 -17 -9 -20 -15 -10
-9 13 -9 11 -23 -56 -3 -11 -5 -3 -6 18 0 21 -5 36 -9 33 -5 -3 -9 8 -9 25 0
19 3 25 9 17 4 -7 8 -8 8 -3 0 6 4 4 8 -2 5 -8 8 1 8 22 0 24 -3 31 -11 25 -7
-6 -16 -6 -20 -2 -5 4 -5 1 -1 -5 4 -7 2 -13 -3 -13 -6 0 -11 -9 -11 -21 0
-11 -5 -17 -10 -14 -6 3 -8 24 -5 46 3 22 1 39 -5 39 -6 0 -10 -15 -10 -34 0
-18 -7 -39 -15 -46 -12 -10 -14 -3 -12 54 1 40 -2 66 -8 66 -5 0 1 9 15 20 14
11 21 20 15 19 -21 0 -45 -27 -39 -43 3 -9 2 -16 -4 -16 -5 0 -9 -16 -8 -36 1
-20 -2 -38 -6 -40 -5 -3 -8 -16 -8 -29 0 -13 -5 -27 -11 -31 -9 -5 -10 1 -5
20 5 21 4 26 -6 20 -7 -4 -4 3 7 16 18 21 18 23 2 17 -13 -5 -16 -3 -11 5 4 7
9 23 10 36 3 23 2 23 -11 6 -14 -18 -14 -18 -15 0 0 11 10 30 22 43 12 13 17
23 11 23 -5 0 -10 7 -10 15 0 8 4 15 8 15 5 0 14 10 20 23 11 20 11 21 -5 8
-15 -13 -18 -12 -23 9 -6 22 -7 23 -14 4 -7 -18 -8 -17 -8 4 -1 24 13 29 26 9
6 -9 17 -2 43 27 32 37 32 38 6 18 -16 -12 -39 -22 -53 -22 -15 0 -27 -8 -33
-22 -5 -13 -9 -19 -9 -14 -1 5 -8 3 -16 -4 -11 -9 -15 -9 -15 -1 0 7 -5 9 -10
6 -6 -4 -8 -10 -5 -15 3 -5 -4 -14 -16 -20 -16 -9 -24 -9 -33 1 -6 6 -6 9 -1
6 6 -3 17 -2 25 4 13 7 13 9 1 9 -11 0 -9 4 5 15 13 10 15 14 5 15 -10 0 -7 8
9 25 13 14 19 25 14 25 -12 0 -39 -42 -36 -54 2 -5 -4 -4 -13 4 -17 14 -15 17
37 74 25 28 28 62 4 53 -6 -2 -22 -7 -36 -11 -20 -6 -22 -5 -10 4 13 9 12 10
-5 7 -11 -2 -19 -9 -18 -15 2 -7 -2 -12 -7 -12 -15 0 -11 41 6 70 l15 25 -4
-27 c-3 -19 0 -28 9 -28 8 0 14 9 14 19 0 11 5 23 10 26 19 12 10 22 -15 17
-30 -5 -32 11 -5 38 11 11 23 38 26 61 7 40 6 41 -14 28 -12 -8 -24 -20 -27
-28 -4 -10 1 -9 15 4 l21 19 -7 -29 c-4 -16 -19 -41 -34 -55 -33 -33 -53 -67
-45 -80 3 -5 1 -11 -4 -15 -6 -3 -8 -13 -5 -23 4 -12 3 -13 -3 -4 -12 16 -10
41 5 70 12 21 7 27 -20 23 -4 0 -5 6 -1 15 5 13 7 13 14 2 7 -10 9 -9 9 5 0
10 8 21 17 24 15 6 15 7 -3 14 -15 6 -16 8 -3 8 10 1 19 12 22 28 4 22 3 25
-6 13 -12 -16 -62 -50 -72 -50 -4 0 -3 6 1 13 5 9 4 9 -5 1 -7 -6 -14 -20 -16
-30 -2 -11 -4 -21 -4 -24 -1 -3 -6 2 -11 10 -9 13 -11 13 -19 1 -6 -10 -9 -6
-8 15 2 33 13 44 43 44 12 0 32 10 45 23 14 12 30 22 37 23 28 2 33 4 28 13
-7 11 -29 9 -47 -6 -8 -5 -22 -10 -32 -10 -16 0 -16 2 0 19 9 10 23 18 32 19
10 0 12 2 4 6 -7 2 -13 8 -13 13 0 5 6 15 13 22 6 8 21 25 32 38 l20 25 -24
-20 -24 -20 8 25 c4 14 14 31 24 39 12 10 12 12 1 9 -7 -2 -23 -20 -33 -39
-10 -19 -23 -38 -28 -44 -15 -15 -10 19 6 41 8 10 15 32 15 48 0 16 8 38 18
49 16 19 16 20 -5 8 -13 -6 -23 -17 -24 -24 0 -7 -7 2 -14 18 -12 26 -20 27
-16 1 1 -5 -5 -6 -14 -3 -19 8 -20 -30 -1 -55 17 -23 28 -12 13 13 -15 24 -2
36 18 16 19 -20 19 -25 -5 -75 -25 -52 -25 -65 0 -57 19 6 19 4 9 -19 -7 -14
-16 -26 -21 -26 -5 0 -6 6 -3 13 4 6 -3 1 -14 -13 l-21 -25 0 28 c0 16 -4 26
-10 22 -5 -3 -10 -18 -10 -32 0 -17 -4 -23 -14 -20 -10 4 -13 -1 -10 -16 4
-19 3 -18 -6 3 -9 19 -8 27 4 35 8 6 18 28 21 49 4 20 16 43 26 49 11 7 19 16
19 21 0 20 -49 -38 -55 -65 -7 -29 -25 -50 -25 -29 0 6 -5 8 -11 4 -8 -5 -10
3 -7 25 4 30 4 30 -15 13 -10 -9 -22 -16 -26 -14 -3 2 -8 -5 -9 -15 -2 -10 -8
-22 -14 -28 -6 -6 -7 -4 -3 8 10 26 -14 21 -25 -5 -7 -19 -9 -16 -9 18 -1 28
4 44 14 48 8 3 15 12 15 20 0 8 6 17 13 19 6 3 1 6 -12 6 -16 1 -21 -3 -18
-13 9 -23 -3 -26 -24 -5 -11 11 -16 25 -12 36 6 16 5 17 -12 3 -17 -14 -18
-13 -12 25 4 23 16 47 29 58 l23 18 -23 -6 c-13 -4 -29 -1 -37 5 -12 10 -13 8
-10 -9 2 -12 0 -19 -6 -16 -5 4 -9 0 -10 -7 0 -9 -2 -10 -5 -1 -3 7 0 21 6 32
7 14 7 21 1 21 -6 0 -8 7 -5 15 4 8 10 12 15 9 5 -3 7 -9 4 -14 -3 -4 2 -10
10 -14 9 -3 19 3 25 14 8 14 8 20 0 20 -6 0 -8 5 -5 10 4 6 10 8 15 5 4 -3 6
4 3 15 -5 19 -6 20 -20 3 -8 -10 -12 -13 -9 -7 3 7 -1 15 -10 18 -14 5 -12 9
7 26 13 11 20 19 15 20 -5 0 -4 6 2 13 7 8 6 16 -4 25 -8 8 -14 9 -15 2 -2
-17 -5 -24 -19 -52 -11 -23 -15 -25 -26 -13 -8 7 -15 22 -15 32 -1 10 -4 5 -8
-12 -4 -16 -3 -37 2 -45 6 -10 3 -35 -6 -68 -9 -29 -12 -52 -6 -52 5 0 9 7 9
16 0 8 5 12 10 9 15 -9 12 -35 -4 -35 -8 0 -16 -10 -19 -22 -4 -23 -4 -23 -15
2 -7 17 -11 20 -11 8 -1 -9 7 -24 17 -34 16 -17 17 -17 20 4 6 37 21 24 17
-14 -4 -25 -2 -33 6 -28 7 4 3 -7 -7 -25 -10 -17 -20 -27 -23 -20 -2 6 3 15
10 20 11 6 10 12 -5 28 -10 11 -23 18 -29 14 -5 -3 -7 -1 -3 5 3 6 2 13 -4 17
-5 3 -10 20 -10 38 0 29 -1 30 -15 11 -15 -19 -15 -19 -8 1 3 11 9 25 13 30 4
6 10 20 12 32 5 16 2 20 -10 16 -11 -5 -14 -2 -9 11 5 12 2 16 -11 14 -11 -2
-18 5 -20 20 -2 12 -8 22 -13 22 -5 0 -7 10 -4 23 5 18 2 23 -14 24 -19 2 -19
0 5 -50 13 -29 24 -62 24 -74 0 -25 10 -29 28 -11 18 18 15 3 -8 -36 -20 -33
-20 -35 -2 -40 20 -7 25 -37 8 -48 -7 -5 -6 -8 3 -8 11 0 11 -3 1 -15 -18 -21
-6 -30 13 -10 18 18 25 10 23 -27 -1 -14 3 -24 8 -21 5 4 7 0 4 -9 -10 -24 22
-80 41 -73 12 5 13 4 4 -6 -9 -9 -7 -21 11 -53 13 -23 23 -51 22 -63 -2 -18 0
-20 11 -11 16 13 33 -4 33 -34 0 -10 8 -27 18 -37 40 -45 44 -51 30 -51 -7 -1
-3 -9 10 -19 12 -11 22 -24 22 -30 0 -6 4 -11 9 -11 5 0 7 -9 4 -20 -3 -10 2
-26 11 -35 17 -18 22 -45 7 -45 -5 0 -12 8 -16 18 -3 11 -17 24 -30 30 -14 6
-25 17 -25 24 0 8 -11 30 -25 51 -14 20 -23 37 -21 37 3 0 -6 16 -19 36 -14
20 -25 43 -25 50 0 8 -5 14 -10 14 -6 0 -22 24 -36 53 -13 28 -33 66 -44 82
-10 17 -28 50 -40 75 -43 88 -55 110 -61 110 -3 0 -5 8 -5 17 1 10 -3 18 -9
18 -13 0 -8 -37 7 -46 6 -4 8 -11 5 -16 -3 -5 3 -22 14 -39 10 -16 19 -37 19
-46 0 -9 7 -24 16 -32 8 -9 13 -20 10 -25 -3 -5 1 -14 8 -20 8 -7 34 -51 58
-99 24 -48 49 -93 56 -100 6 -7 12 -22 12 -33 0 -10 5 -19 10 -19 6 0 10 -7
10 -15 0 -8 5 -15 12 -15 6 0 8 -3 5 -6 -4 -4 5 -20 18 -36 14 -16 25 -36 25
-44 0 -8 4 -14 10 -14 5 0 21 -20 36 -45 14 -25 30 -45 35 -45 5 0 9 -7 9 -15
0 -8 5 -15 10 -15 6 0 10 -7 10 -15 0 -8 5 -15 11 -15 5 0 8 -4 5 -9 -4 -5 -3
-11 2 -13 13 -5 72 -91 72 -105 0 -7 5 -13 10 -13 6 0 10 -12 11 -27 0 -16 3
-22 6 -15 7 17 23 15 23 -3 0 -8 4 -15 9 -15 5 0 11 -7 15 -15 7 -19 1 -19
-19 1 -9 9 -19 13 -23 10 -3 -4 0 -11 7 -15 8 -6 12 -18 8 -32 -3 -13 -8 -34
-10 -46 -3 -12 1 -27 9 -34 11 -9 12 -15 3 -26 -10 -11 -8 -12 6 -7 21 8 47
-20 38 -42 -6 -17 13 -19 20 -1 9 22 27 -15 20 -43 -9 -40 -9 -42 5 -46 7 -1
8 0 2 3 -12 6 -3 23 12 23 7 0 8 -13 5 -35 -4 -26 -2 -35 9 -35 8 0 14 -4 14
-10 0 -5 -5 -10 -10 -10 -7 0 -5 -6 2 -15 7 -9 18 -21 23 -28 12 -14 13 -47 2
-64 -4 -6 -4 -19 -1 -28 6 -13 9 -14 16 -3 7 9 8 8 4 -5 -3 -10 -6 -25 -6 -33
0 -9 -4 -12 -10 -9 -6 3 -7 -1 -4 -9 3 -9 10 -13 16 -10 5 3 4 -3 -4 -15 -7
-12 -16 -21 -20 -21 -5 0 -8 -5 -8 -11 0 -6 7 -9 15 -5 18 7 20 -5 3 -22 -7
-7 -9 -12 -4 -12 15 0 38 31 33 45 -3 7 0 19 8 25 10 8 13 7 12 -2 -1 -37 4
-59 13 -53 5 3 10 3 11 -2 0 -4 3 -17 5 -28 9 -37 15 -70 18 -95 2 -14 4 -29
5 -33 0 -5 6 -5 13 -1 8 5 9 0 5 -15 -4 -17 -2 -20 7 -12 7 6 17 6 26 0 13 -8
13 -10 0 -18 -8 -5 -18 -7 -22 -5 -4 3 -8 0 -8 -6 0 -15 25 -40 42 -41 10 0
10 -2 1 -6 -7 -2 -13 -9 -13 -14 0 -6 4 -8 9 -5 5 4 7 -3 4 -14 -4 -16 -2 -19
11 -14 14 5 15 3 6 -22 -8 -20 -8 -30 -1 -32 6 -2 8 -9 4 -14 -4 -7 1 -9 15
-6 12 3 21 3 20 -1 -2 -19 3 -31 13 -28 6 1 15 -8 20 -20 4 -13 4 -22 0 -20
-5 1 -9 -1 -10 -5 -4 -27 1 -38 15 -38 11 0 14 5 9 18 -5 13 -4 14 6 5 10 -10
9 -15 -1 -28 -10 -12 -10 -15 1 -16 10 0 11 -2 2 -6 -19 -7 -15 -41 6 -52 10
-6 21 -7 25 -4 3 3 6 -1 6 -10 0 -9 -3 -16 -7 -16 -19 3 -28 -2 -18 -9 19 -13
65 -81 65 -94 0 -26 45 -143 63 -163 15 -16 19 -17 27 -6 10 17 -63 226 -106
304 -16 28 -16 29 5 18 12 -7 47 -35 80 -64 114 -102 317 -176 440 -161 70 8
128 33 164 70 41 41 50 61 31 68 -8 3 -17 -1 -20 -9 -4 -9 -16 -13 -35 -11
-16 2 -27 0 -25 -3 3 -4 -22 -6 -54 -6 -32 0 -56 3 -53 8 3 6 -28 10 -53 6 -4
0 -10 3 -13 8 -3 5 -26 15 -51 22 -25 7 -51 18 -58 23 -7 6 -30 20 -51 32 -44
24 -82 50 -119 84 -14 12 -29 22 -35 22 -5 0 -6 7 -3 16 4 11 -1 18 -14 21
-20 5 -20 7 -4 24 9 11 13 19 8 19 -5 0 -15 9 -22 21 -12 19 -11 20 7 14 30
-9 26 13 -4 27 -21 9 -25 18 -25 54 0 37 -3 43 -27 49 -21 5 -24 8 -12 16 12
8 12 10 -1 19 -11 7 -16 5 -18 -5 -5 -22 -18 -18 -19 7 -1 11 -8 25 -15 29 -7
5 -8 9 -3 9 6 0 -5 10 -22 21 -18 12 -33 29 -33 40 0 10 -6 18 -12 16 -7 -1
-12 4 -11 10 2 7 -1 13 -7 13 -5 0 -7 7 -4 15 4 8 1 15 -5 15 -10 0 -32 39
-35 61 -1 3 -9 13 -18 23 -20 19 -24 31 -8 21 16 -10 12 0 -10 25 -11 13 -20
31 -20 41 0 10 -5 21 -11 24 -5 4 -8 12 -6 18 3 7 -6 31 -19 54 -15 25 -21 49
-17 60 3 10 2 15 -2 11 -5 -5 -15 2 -23 13 -12 18 -13 23 -1 30 11 7 9 9 -7 9
-24 0 -34 17 -34 56 0 17 -6 24 -20 24 -12 0 -20 7 -20 16 0 10 6 14 14 11 8
-3 17 -1 19 6 2 7 11 -3 21 -20 9 -18 30 -40 47 -49 17 -8 28 -11 25 -5 -8 13
-4 14 18 5 13 -5 14 -9 5 -21 -11 -12 -9 -12 13 -3 l25 12 -41 44 c-45 48 -56
53 -56 27 0 -9 3 -13 7 -10 3 4 12 2 20 -4 9 -8 10 -15 3 -24 -9 -10 -17 -8
-37 13 -15 15 -21 28 -15 30 7 2 12 13 12 24 0 17 -3 18 -15 8 -12 -10 -18
-10 -30 0 -8 7 -15 9 -15 5 0 -4 -7 -2 -15 5 -9 7 -13 20 -10 28 3 10 0 12
-10 8 -8 -3 -15 -1 -15 4 0 5 9 11 19 15 29 9 35 36 11 42 -17 5 -20 11 -15
34 4 18 2 29 -4 29 -6 0 -11 -8 -12 -17 0 -11 -3 -13 -6 -5 -2 6 -11 12 -19
12 -9 0 -12 -4 -9 -10 7 -11 -8 -14 -18 -4 -13 14 6 32 29 28 13 -2 24 0 24 6
0 5 -7 10 -16 10 -8 0 -12 5 -9 10 6 9 -8 14 -28 11 -5 -1 -6 3 -3 8 4 5 -1
16 -10 25 -8 9 -13 20 -10 25 3 5 -1 11 -9 14 -22 9 -55 83 -42 96 7 7 14 5
23 -7 17 -22 18 -45 2 -36 -8 4 -10 3 -5 -2 5 -5 12 -9 15 -10 26 -3 39 -17
34 -36 -4 -18 -2 -20 21 -14 19 4 27 2 27 -6 1 -8 7 -5 15 6 14 19 15 17 16
-20 0 -31 2 -35 9 -19 7 16 9 12 9 -20 1 -30 4 -36 13 -27 19 19 30 14 18 -8
-6 -11 -15 -18 -21 -15 -11 8 -12 -5 0 -24 7 -11 10 -9 16 8 9 29 23 27 31 -5
l7 -26 19 29 c13 18 18 21 13 8 -11 -33 -11 -37 4 -43 8 -3 11 0 7 7 -11 16 5
13 26 -6 10 -9 18 -23 18 -31 0 -12 3 -12 15 4 8 10 15 15 15 9 0 -5 5 -3 10
5 7 12 10 8 10 -15 0 -23 3 -27 10 -15 5 8 10 10 10 5 0 -6 9 -16 20 -22 17
-11 18 -10 13 5 -4 11 3 7 22 -11 18 -18 34 -25 47 -22 10 4 18 2 18 -4 0 -6
5 -11 11 -11 6 0 8 7 5 16 -3 8 -2 13 3 9 5 -3 12 1 14 7 3 7 6 3 6 -10 1 -20
5 -23 32 -18 20 3 37 -1 46 -10 8 -8 19 -12 24 -9 5 4 9 -2 10 -12 0 -11 3
-13 6 -5 2 6 9 9 15 6 5 -3 16 2 23 12 13 18 14 18 15 2 0 -10 7 -18 15 -18 9
0 19 -8 22 -17 6 -15 7 -15 13 2 6 17 16 19 76 17 38 -1 77 -5 88 -8 12 -4 16
-2 12 5 -4 6 -3 11 3 11 5 0 12 -6 14 -12 4 -10 8 -9 16 2 10 13 12 13 21 0 8
-13 10 -13 10 1 0 23 38 31 50 11 8 -14 11 -15 19 -3 11 16 26 -3 15 -20 -4
-7 -1 -10 7 -7 8 3 15 10 15 16 1 7 2 17 3 23 0 5 6 7 12 4 6 -4 8 -14 5 -24
-5 -14 -4 -14 7 1 17 21 37 6 36 -27 0 -20 0 -20 -9 0 -7 16 -9 17 -9 3 -1 -9
-6 -18 -12 -20 -9 -3 -9 -10 1 -27 9 -17 9 -21 0 -16 -7 4 -18 -2 -26 -13 -8
-12 -20 -20 -27 -18 -6 1 -9 1 -4 -1 4 -3 5 -9 1 -14 -3 -5 0 -9 6 -9 6 0 13
6 16 14 3 8 13 17 21 20 12 5 13 4 5 -7 -7 -8 -10 -17 -7 -20 3 -4 2 -5 -1 -3
-7 5 -24 -7 -60 -43 -13 -13 -27 -21 -31 -18 -3 4 -1 7 5 7 7 0 12 4 12 8 0 5
-7 9 -15 9 -8 0 -15 -9 -15 -19 0 -10 -4 -18 -10 -18 -5 0 -9 -6 -7 -12 1 -7
-9 -14 -23 -16 -25 -4 -52 -31 -44 -44 3 -5 -5 -8 -17 -8 -12 0 -19 -3 -15 -7
13 -13 135 -9 141 5 2 6 11 12 19 12 18 0 12 -25 -12 -52 -17 -21 -10 -24 10
-6 23 22 58 39 58 29 0 -6 -4 -12 -9 -15 -13 -8 -1 -57 13 -49 6 3 1 -5 -11
-19 -24 -26 -30 -53 -13 -63 6 -3 10 -2 10 2 0 5 23 19 50 32 28 13 50 28 50
32 0 5 16 15 35 23 19 8 35 20 35 25 0 6 5 11 11 11 7 0 8 -7 4 -17 -5 -10 -8
-27 -8 -38 -1 -11 -6 -24 -11 -28 -6 -5 4 -7 23 -4 32 4 33 3 13 -12 -15 -12
-19 -26 -17 -59 2 -23 0 -42 -4 -42 -4 0 -7 -10 -8 -22 -1 -11 -6 -24 -11 -27
-15 -11 -21 -38 -9 -50 8 -8 6 -16 -6 -29 -9 -10 -14 -22 -10 -26 4 -4 1 -11
-6 -15 -9 -6 -10 -14 -5 -22 5 -8 9 -18 10 -24 0 -5 2 -19 3 -30 2 -19 3 -19
11 2 5 13 14 23 20 23 5 0 10 7 10 16 0 8 5 12 10 9 6 -3 14 5 20 19 5 14 12
26 15 26 4 0 3 -5 0 -10 -3 -6 -2 -10 3 -10 6 0 8 18 5 42 -5 32 -3 39 7 33
10 -6 12 -3 8 13 -4 12 -3 22 2 22 4 0 10 10 14 23 3 13 13 41 23 63 9 21 16
42 15 47 -1 4 3 7 9 7 6 0 9 6 6 14 -3 8 -2 16 2 18 4 2 28 47 54 101 26 54
51 96 55 93 5 -3 7 6 4 20 -4 23 -2 26 19 20 13 -3 18 -3 12 0 -7 3 -13 15
-13 25 0 11 5 17 10 14 6 -3 10 -1 10 5 0 6 5 8 10 5 6 -3 10 0 10 8 0 8 7 18
16 21 26 10 30 6 10 -9 -11 -8 -15 -15 -9 -15 7 0 15 5 18 10 3 6 11 10 16 10
6 0 8 -4 4 -9 -3 -5 0 -13 6 -17 8 -4 9 -3 5 4 -4 7 -3 12 3 12 6 0 8 7 5 15
-4 8 -9 13 -13 11 -3 -2 -15 2 -26 10 -18 13 -17 14 14 14 29 0 32 2 21 15 -7
9 -10 18 -6 22 3 3 6 2 6 -4 0 -5 7 -10 15 -10 10 0 12 4 5 12 -7 8 2 11 30
11 32 -1 39 -4 35 -17 -3 -9 1 -22 10 -29 19 -16 19 -30 0 -30 -8 0 -15 -3
-15 -6 0 -6 26 -34 32 -34 6 0 2 55 -6 79 -4 13 -5 48 -1 78 5 43 11 56 26 60
10 3 16 9 13 15 -3 5 -15 6 -27 3 -17 -5 -19 -4 -7 4 12 8 12 11 -5 18 -24 9
-26 33 -5 50 13 11 13 12 -2 13 -13 0 -17 7 -16 25 1 14 5 25 9 25 4 0 6 8 5
18 -2 9 0 19 3 22 3 3 16 19 28 37 17 24 19 32 9 36 -8 3 -13 -1 -12 -10 0 -9
-4 -18 -10 -20 -7 -2 -10 6 -9 19 1 13 3 29 4 36 0 7 6 10 13 6 8 -5 9 0 6 14
-4 12 -3 20 1 18 12 -8 71 23 70 36 0 10 -2 10 -6 1 -2 -7 -8 -13 -13 -13 -17
0 15 59 35 64 12 3 21 14 22 27 1 12 9 29 17 38 9 9 36 41 61 71 25 30 52 62
61 71 8 9 12 23 9 31 -7 17 19 43 35 33 14 -9 13 18 -2 33 -8 8 -9 12 -1 12 6
0 9 10 6 23 -4 18 -3 19 6 7 9 -13 11 -13 11 3 0 9 6 17 13 17 7 0 3 8 -8 17
-20 15 -20 15 2 10 21 -5 42 18 23 25 -13 5 5 73 18 71 7 -2 12 9 12 27 0 22
5 30 18 31 9 0 12 3 5 5 -17 7 -4 34 16 35 9 0 11 3 5 5 -13 6 -7 44 7 44 5 0
9 16 9 36 0 32 2 35 23 29 20 -5 20 -5 5 8 -14 11 -15 17 -5 33 7 10 14 33 16
49 2 17 6 35 11 40 4 6 11 28 15 50 4 22 12 49 18 60 6 11 11 25 12 30 0 10
37 126 42 134 1 2 9 -2 18 -9 12 -10 16 -9 21 3 4 12 17 14 52 11 33 -2 42 -1
32 6 -14 9 -12 12 6 9 4 0 11 5 16 13 8 10 9 10 5 -2 -2 -8 2 -21 10 -28 7 -8
11 -18 8 -23 -4 -5 -1 -9 4 -9 18 0 12 -29 -9 -50 -11 -11 -21 -23 -21 -27 -1
-5 -5 -18 -10 -31 -5 -13 -9 -29 -9 -37 0 -8 -5 -17 -10 -20 -6 -4 -8 -10 -5
-15 3 -5 1 -19 -5 -30 -6 -11 -12 -52 -13 -90 -1 -47 -7 -74 -16 -79 -17 -11
-2 -62 20 -70 12 -4 12 -2 0 13 -13 15 -13 19 0 27 10 6 10 9 2 9 -7 0 -13 5
-13 11 0 5 6 7 13 3 6 -4 9 -4 5 1 -4 4 4 19 18 32 18 17 21 23 10 23 -9 0
-16 5 -16 11 0 5 5 7 10 4 8 -5 16 39 11 68 0 4 4 7 11 7 6 0 4 6 -7 13 -22
17 -11 41 16 34 11 -3 19 -1 19 4 0 5 -9 9 -20 9 -11 0 -20 5 -20 10 0 6 6 10
13 10 8 0 7 4 -3 10 -13 8 -12 10 3 10 10 0 15 4 12 10 -3 5 -3 15 1 21 4 8 8
8 13 0 4 -6 11 -3 19 9 9 16 9 18 -2 14 -8 -3 -17 -1 -21 5 -3 6 -1 11 4 11 6
0 11 8 11 18 0 11 3 13 8 6 5 -8 11 -7 22 4 13 14 12 15 -3 9 -11 -4 -17 -1
-17 8 0 19 17 28 23 13 4 -9 6 -8 6 2 1 9 10 22 21 30 25 18 25 26 1 55 -15
20 -18 38 -15 101 1 42 7 81 12 86 6 6 8 17 5 24 -8 20 6 66 17 59 6 -3 10 0
10 9 0 8 4 16 9 18 4 2 10 29 13 60 4 50 2 59 -14 64 -17 5 -26 25 -10 23 4
-1 16 -1 27 0 16 1 17 3 5 10 -8 6 -18 7 -22 5 -4 -3 -5 2 -1 11 4 12 8 13 13
5 4 -6 10 9 13 35 8 52 36 107 52 102 5 -3 9 -11 9 -20 -1 -9 2 -14 7 -11 5 3
12 -3 16 -13 4 -10 10 -20 15 -23 4 -3 14 -33 22 -65 l14 -60 2 130 c1 72 2
133 1 138 -3 17 17 5 22 -13 6 -23 27 -27 27 -5 0 8 -4 15 -10 15 -5 0 -7 7
-4 15 5 11 2 13 -10 9 -13 -5 -16 1 -16 26 0 17 4 29 10 25 5 -3 7 -12 3 -20
-7 -20 2 -19 23 2 9 10 32 18 51 18 l34 0 -5 -170 c-3 -93 -6 -221 -7 -283 -1
-78 -5 -114 -14 -120 -6 -4 -15 -14 -18 -22 -4 -8 -4 1 -1 20 4 26 3 31 -5 20
-6 -8 -11 -23 -11 -33 0 -10 -6 -20 -14 -23 -8 -3 -12 -12 -10 -19 3 -7 1 -16
-5 -20 -14 -8 -15 40 -1 65 8 16 7 19 -10 17 -11 -1 -20 -6 -21 -12 -1 -5 -2
-23 -4 -40 -2 -27 -16 -120 -30 -200 -3 -16 -8 -41 -12 -55 -4 -14 -8 -32 -9
-40 -1 -8 -8 -41 -17 -72 -8 -32 -11 -58 -6 -58 5 0 9 -4 9 -10 0 -5 -6 -10
-14 -10 -10 0 -20 -25 -31 -77 -9 -43 -23 -98 -30 -123 -18 -59 -34 -136 -40
-184 -3 -21 -7 -41 -10 -45 -2 -4 7 -93 21 -197 36 -264 29 -375 -31 -572 -9
-29 -24 -62 -33 -72 -9 -10 -26 -30 -36 -43 -13 -16 -28 -24 -40 -21 -20 3
-20 2 -3 -10 17 -13 14 -51 -4 -40 -5 3 -7 10 -4 15 9 14 -5 11 -21 -5 -12
-13 -12 -16 2 -24 14 -8 14 -10 1 -15 -8 -3 -23 1 -34 8 -17 13 -17 14 2 30
11 9 14 14 8 10 -8 -4 -13 1 -13 13 0 27 11 34 29 19 14 -11 14 -10 1 6 -16
21 -15 74 1 93 8 10 5 12 -10 11 -24 -1 -30 -18 -26 -64 2 -20 -1 -30 -7 -27
-5 3 -7 12 -4 20 3 8 0 11 -9 8 -10 -4 -11 -13 -4 -36 4 -17 6 -35 3 -40 -3
-5 -7 -25 -9 -44 -2 -20 -5 -38 -8 -40 -5 -5 -10 58 -8 110 l0 28 -23 -26
c-18 -22 -28 -26 -49 -21 -18 5 -27 14 -28 29 0 13 -2 16 -6 6 -15 -46 -15
-46 -23 -25 -8 17 -9 16 -9 -8 -1 -16 3 -26 9 -22 6 3 10 2 10 -4 0 -6 7 -8
16 -4 14 5 14 3 2 -16 -9 -16 -19 -20 -36 -16 -21 5 -23 3 -17 -17 5 -18 4
-20 -4 -8 -9 13 -12 12 -17 -7 -4 -13 -10 -21 -14 -18 -5 3 -6 -5 -2 -17 4
-17 2 -20 -11 -15 -14 5 -17 -1 -19 -36 0 -23 -1 -48 -1 -54 1 -7 -3 -10 -8
-7 -5 3 -9 -2 -9 -11 0 -9 -5 -13 -10 -10 -7 4 -8 -3 -4 -21 6 -24 5 -26 -12
-20 -14 5 -16 4 -8 -4 13 -13 6 -63 -7 -54 -5 3 -9 0 -9 -6 0 -6 -4 -8 -10 -5
-6 3 -7 -1 -4 -10 5 -11 2 -14 -12 -8 -13 5 -15 3 -9 -8 12 -18 14 -50 4 -43
-5 2 -14 -14 -20 -36 -10 -32 -17 -40 -31 -37 -14 4 -18 -1 -18 -24 0 -20 -5
-29 -16 -29 -10 0 -14 -6 -10 -15 3 -8 2 -15 -2 -15 -4 0 -7 -16 -7 -35 0 -19
3 -35 8 -35 4 0 7 -5 7 -11 0 -5 -4 -8 -9 -5 -5 3 -12 -11 -16 -31 -5 -27 -9
-33 -16 -22 -7 12 -9 12 -10 -1 -4 -31 -5 -36 -22 -67 -9 -17 -25 -34 -36 -38
-10 -3 -22 -17 -25 -31 -4 -14 -15 -35 -26 -46 -10 -11 -16 -27 -13 -36 5 -11
2 -14 -9 -9 -11 4 -17 -2 -21 -21 -3 -15 -13 -36 -22 -47 -9 -11 -13 -14 -9
-6 5 9 3 12 -5 7 -6 -4 -8 -12 -5 -18 4 -6 -1 -17 -10 -24 -10 -7 -18 -16 -18
-21 -1 -18 -20 -58 -51 -107 -18 -28 -42 -69 -54 -91 -11 -22 -35 -67 -54
-100 -63 -115 -159 -310 -159 -324 0 -8 -6 -11 -15 -7 -9 3 -15 0 -15 -9 0 -8
-4 -15 -10 -15 -5 0 -10 -5 -10 -11 0 -5 4 -7 10 -4 13 8 0 -28 -14 -37 -7 -5
-7 -8 2 -8 7 0 2 -11 -13 -25 -14 -14 -25 -37 -25 -51 0 -14 -4 -23 -10 -19
-5 3 -14 -13 -21 -35 -7 -22 -16 -40 -20 -40 -4 0 -11 -9 -14 -20 -3 -11 -10
-20 -15 -20 -7 0 -7 46 -1 128 1 6 6 12 12 12 6 0 8 -7 5 -16 -3 -8 -2 -13 3
-10 5 3 9 17 9 31 -1 13 -4 22 -9 19 -11 -6 -4 13 31 86 15 30 33 72 39 92 7
20 20 47 30 60 10 13 22 34 26 48 12 39 26 54 37 38 6 -9 7 -6 3 9 -6 22 10
62 32 75 6 5 9 17 6 28 -3 12 1 22 11 26 9 3 16 13 16 21 0 8 14 34 30 58 17
24 30 48 30 54 0 6 5 11 10 11 6 0 10 9 10 20 0 11 7 20 16 20 8 0 13 4 10 8
-2 4 9 27 25 51 16 24 29 50 29 58 0 8 5 11 10 8 6 -3 10 0 10 8 0 7 8 22 18
33 10 10 30 40 45 67 16 27 33 45 39 41 6 -4 9 -1 6 7 -3 8 3 32 13 54 10 22
19 63 19 90 0 46 4 55 39 89 27 26 40 34 44 24 3 -7 6 0 6 15 l1 28 -22 -24
c-40 -41 -110 -84 -93 -57 10 17 -11 11 -27 -7 -9 -10 -24 -33 -34 -52 -47
-85 -82 -143 -118 -197 -148 -225 -221 -354 -408 -721 -46 -90 -86 -163 -90
-163 -10 0 1 27 49 126 68 139 114 288 83 269 -5 -3 -10 -17 -10 -29 0 -13 -6
-29 -14 -35 -8 -7 -17 -24 -21 -38 -7 -31 -45 -82 -45 -62 0 8 -9 20 -20 27
-11 7 -19 9 -18 5 4 -10 -39 -53 -51 -53 -5 0 -12 -9 -16 -19 -5 -17 -10 -18
-35 -9 -16 5 -43 25 -60 44 -17 19 -35 32 -40 29 -6 -3 -10 -1 -10 5 0 6 -4 9
-9 5 -5 -3 -12 -1 -16 4 -7 13 -93 71 -104 71 -4 0 -16 9 -26 20 -10 11 -15
20 -11 20 4 0 1 7 -8 15 -8 8 -19 15 -23 15 -5 0 -30 14 -56 30 -26 16 -54 30
-62 30 -8 0 -15 3 -16 8 -4 41 -19 69 -19 36 -1 -19 -1 -19 -15 0 -12 16 -13
22 -2 35 11 12 11 21 2 38 -12 23 -25 20 -44 -12 -11 -19 -11 -19 -9 2 2 12
-1 22 -6 22 -5 -1 -13 5 -17 13 -5 8 -9 9 -9 2 0 -7 -7 -14 -15 -18 -14 -5
-15 4 -6 67 0 5 7 5 14 1 9 -5 9 -4 0 6 -15 17 -23 10 -27 -22 -1 -13 -5 -29
-9 -35 -4 -7 1 -18 11 -25 11 -8 19 -28 20 -53 2 -29 0 -36 -7 -25 -5 8 -7 18
-4 22 2 5 -3 20 -12 34 -13 20 -19 23 -30 14 -8 -7 -20 -10 -27 -8 -7 3 -19
-1 -26 -9 -7 -7 -17 -13 -21 -13 -11 0 -61 51 -61 62 0 5 -4 7 -9 4 -5 -3 -43
27 -84 67 -42 40 -89 80 -104 88 -15 7 -32 20 -36 26 -4 7 -14 13 -22 13 -11
0 -41 40 -102 136 -11 17 -12 17 -12 2 -1 -10 4 -18 11 -18 6 0 9 -3 5 -6 -3
-4 0 -18 7 -33 7 -14 11 -32 8 -40 -2 -8 0 -11 6 -7 6 3 25 -6 44 -21 18 -16
39 -32 47 -38 8 -5 36 -31 62 -58 26 -26 52 -47 58 -47 6 0 11 -7 11 -15 0 -8
4 -15 8 -15 5 0 40 -31 79 -68 38 -37 75 -66 81 -64 7 2 12 -3 12 -11 0 -8 8
-21 17 -28 15 -12 16 -12 10 4 -4 11 -3 16 3 12 6 -3 10 -11 10 -16 0 -13 25
-39 37 -39 5 0 27 -19 48 -41 l40 -41 -60 32 c-60 33 -69 38 -162 94 -62 37
-174 124 -192 149 -14 20 -69 47 -95 47 -17 0 -9 -36 18 -92 9 -17 16 -39 16
-50 0 -13 7 -18 25 -18 14 0 28 -7 31 -15 4 -8 12 -15 20 -15 8 0 14 -4 14 -8
0 -5 37 -35 83 -67 45 -33 88 -65 95 -72 7 -7 18 -13 24 -13 11 0 85 -57 120
-93 10 -9 23 -17 28 -17 6 0 10 -10 11 -22 0 -13 3 -17 6 -10 2 6 9 12 14 12
4 0 5 -8 2 -17 -5 -13 -2 -15 11 -10 9 4 15 3 12 -2 -8 -13 31 -44 45 -35 7 4
10 3 7 -2 -9 -14 11 -56 22 -49 5 3 10 -1 10 -10 0 -10 5 -13 12 -9 7 4 8 3 4
-4 -4 -6 2 -19 13 -28 11 -10 17 -24 14 -33 -4 -9 -3 -13 1 -10 4 4 18 -3 31
-14 18 -17 21 -26 14 -42 -10 -20 -10 -20 6 0 14 17 17 18 25 5 6 -8 8 -20 6
-27 -3 -6 1 -19 9 -29 10 -14 10 -22 2 -32 -5 -7 -6 -12 -1 -11 21 4 54 -2 53
-8 -1 -5 2 -19 6 -31 6 -18 10 -20 16 -10 6 9 9 9 9 1 0 -6 -5 -15 -10 -18 -6
-4 -8 -11 -4 -16 4 -6 10 -6 19 1 10 8 15 4 23 -19 7 -19 7 -33 1 -36 -5 -4
-9 -11 -9 -17 0 -6 6 -6 15 2 13 11 14 10 9 -4 -3 -9 -1 -16 5 -16 6 0 8 -8 4
-18 -6 -15 -5 -15 11 -3 15 13 18 12 23 -10 4 -13 5 -26 4 -28 -2 -2 2 -7 8
-10 5 -4 12 -18 15 -31 3 -14 10 -41 15 -60 6 -19 11 -36 11 -37 0 -2 -11 7
-25 19 -14 12 -25 28 -25 35 0 7 -5 13 -12 13 -9 0 -9 3 0 12 16 16 15 28 -1
28 -8 0 -26 24 -41 52 -62 116 -76 142 -76 133 0 -5 -5 -4 -12 3 -8 8 -8 15 2
29 12 15 12 16 1 6 -18 -15 -67 8 -76 36 -3 10 -40 51 -83 91 -42 39 -99 93
-127 119 -27 26 -81 73 -120 106 -38 33 -72 62 -75 65 -6 6 -54 46 -120 100
-84 69 -195 165 -202 175 -4 5 -8 6 -8 2 0 -10 -130 125 -130 135 0 5 -16 26
-36 48 -28 30 -40 38 -50 30 -9 -9 -11 -7 -7 8 5 20 -20 37 -38 26 -5 -3 -9 0
-9 6 0 14 -81 89 -97 90 -6 0 -14 6 -16 13 -4 9 -8 8 -17 -3 -10 -13 -11 -13
-7 2 4 12 -9 23 -51 45 -31 15 -59 31 -62 34 -3 3 -27 18 -54 32 -26 14 -61
37 -77 51 -16 15 -29 22 -29 17 0 -5 -7 -12 -16 -15 -12 -5 -15 -2 -11 13 2
11 -3 25 -14 35 -11 9 -19 14 -19 11 0 -5 -23 15 -70 60 -14 13 -41 31 -60 39
-19 8 -31 15 -26 16 12 0 -113 120 -126 120 -5 0 -6 5 -2 12 5 8 2 9 -10 5
-10 -4 -15 -3 -11 3 7 12 -29 62 -39 53 -3 -3 -6 -2 -6 4 0 13 -99 145 -117
156 -7 4 -13 12 -13 18 0 12 -48 86 -78 117 -12 14 -22 29 -22 33 0 11 -67
116 -77 121 -4 1 -24 33 -43 71 -19 37 -38 67 -43 67 -4 0 -6 4 -3 8 3 5 -6
25 -19 45 -14 20 -25 40 -25 45 0 20 -67 152 -73 146 -4 -4 -7 0 -7 9 0 9 -20
56 -44 104 -24 49 -47 98 -51 111 -3 12 -11 22 -16 22 -5 0 -9 13 -9 28 0 15
-4 32 -8 37 -5 6 -21 42 -37 80 -15 39 -32 74 -37 80 -4 5 -8 18 -8 30 0 12
-4 25 -8 30 -20 23 -80 198 -107 310 -9 39 -19 77 -22 85 -3 8 -5 20 -3 25 6
24 -1 89 -11 102 -9 10 -9 12 3 8 12 -5 15 7 17 67 3 78 6 115 15 163 10 49
16 107 19 157 1 25 5 42 8 36 4 -5 9 -3 12 6 3 8 1 17 -6 19 -9 3 -8 8 2 20 7
10 10 17 6 17 -4 0 -2 7 5 15 7 8 10 22 6 31 -6 16 19 74 32 74 4 0 9 8 10 18
3 26 8 44 21 76 6 16 9 31 7 34 -3 3 1 17 8 31 7 14 23 45 35 67 11 23 21 52
21 65 1 13 7 35 14 48 8 14 11 32 8 40 -3 9 -2 13 3 9 9 -9 31 14 90 97 24 33
58 69 76 79 31 18 31 20 12 27 -31 11 -40 49 -17 66 16 12 21 11 31 -4 7 -9
13 -22 13 -29 0 -6 7 -14 15 -17 11 -5 12 -1 5 19 -6 14 -17 32 -25 41 -8 8
-13 18 -10 23 3 4 -2 10 -10 13 -9 4 -12 1 -8 -9 3 -8 -1 -14 -11 -14 -9 0
-16 -5 -16 -12 0 -6 -2 -9 -5 -6 -3 3 -1 17 4 32 10 25 9 26 -22 27 -57 3 -62
4 -76 13 -8 5 -26 9 -40 10 -24 1 -26 5 -33 66 -4 35 -6 65 -5 66 1 1 38 -8
82 -21 60 -18 83 -21 94 -12 10 9 16 8 25 -3 16 -20 56 -42 56 -31 0 5 -7 11
-15 15 -8 3 -12 12 -9 20 5 13 16 14 64 7 2 -1 -1 -6 -8 -13 -17 -17 -15 -35
3 -42 9 -3 15 -1 14 7 -3 27 2 47 11 47 6 0 9 -12 8 -27 -2 -22 1 -28 15 -27
9 1 17 -2 17 -7 0 -5 4 -9 8 -9 4 0 6 16 4 36 -4 31 -2 35 14 32 14 -2 19 -12
19 -36 0 -21 4 -31 14 -29 7 1 17 -5 21 -13 4 -8 12 -25 18 -37 16 -31 15 -38
-3 -23 -13 11 -15 9 -15 -13 0 -17 7 -26 22 -31 35 -9 45 9 26 47 -23 46 -29
67 -18 67 25 0 60 -22 60 -37 0 -14 2 -15 9 -4 7 11 12 10 22 -8 8 -12 24 -21
38 -21 20 0 22 2 11 15 -10 12 -10 19 -2 27 7 7 12 19 12 27 0 11 -3 11 -13
-3 -13 -17 -14 -18 -20 -2 -4 10 -11 14 -17 11 -6 -3 -25 8 -42 26 -25 24 -67
44 -187 85 -89 30 -164 51 -175 48 -12 -4 -16 -2 -12 5 5 7 -4 14 -23 17 -16
4 -32 12 -35 20 -4 12 25 14 175 14 171 0 184 -1 247 -26 37 -15 92 -40 122
-58 30 -17 60 -30 66 -28 7 1 14 -25 18 -68 5 -48 11 -70 19 -67 7 2 10 13 8
23 -2 10 -6 55 -10 99 -7 92 5 138 45 173 28 25 36 69 14 82 -8 5 -9 13 -3 26
6 11 11 46 12 80 2 47 -2 64 -15 75 -11 8 -15 9 -10 2 10 -18 -12 -53 -34 -53
-27 0 -43 34 -34 73 4 18 8 48 9 67 1 19 4 62 8 95 4 33 9 91 13 130 4 50 11
75 24 88 17 15 18 47 1 47 -7 0 3 213 11 245 9 33 18 96 23 165 3 36 8 84 11
108 5 32 3 42 -7 42 -12 0 -12 2 0 9 7 5 11 13 7 19 -8 13 41 52 58 46 9 -4
12 -20 8 -57 -7 -76 -7 -88 1 -127 4 -19 3 -29 -1 -22 -6 9 -15 10 -33 3 -17
-7 -19 -10 -6 -10 9 -1 17 -5 17 -10 0 -5 10 -7 22 -3 14 3 19 2 14 -6 -4 -7
-15 -12 -25 -12 -21 0 -32 -10 -25 -22 3 -5 12 -4 20 3 12 10 13 6 9 -22 l-5
-34 10 33 c12 36 25 35 34 -3 8 -31 -9 -65 -32 -65 -13 0 -14 -2 -3 -9 7 -5
22 -6 34 -3 13 3 18 1 14 -6 -4 -5 -3 -12 2 -14 5 -1 12 -16 15 -33 6 -26 5
-27 -3 -7 -14 31 -18 28 -13 -13 2 -19 -1 -42 -8 -50 -13 -16 -2 -21 16 -7 5
4 0 -2 -11 -14 -17 -15 -19 -23 -9 -31 8 -9 15 -8 25 0 7 7 5 2 -5 -10 -12
-14 -16 -29 -11 -45 5 -18 4 -20 -4 -8 -13 18 -14 1 -2 -19 5 -8 16 -11 25 -8
11 5 16 1 16 -13 0 -10 -4 -21 -9 -25 -17 -10 -41 -65 -28 -62 8 1 11 -11 9
-35 -2 -21 1 -38 6 -38 9 0 14 -53 15 -143 0 -15 -6 -39 -14 -53 -10 -20 -11
-29 -1 -44 14 -24 16 -57 2 -65 -5 -3 -6 -13 -3 -22 4 -9 2 -14 -3 -11 -5 4
-18 -1 -29 -9 -19 -15 -19 -15 11 -10 23 4 31 2 31 -9 0 -8 -4 -14 -9 -14 -12
0 -10 -34 4 -48 9 -9 7 -16 -7 -32 -16 -18 -17 -20 -2 -14 10 3 17 1 17 -6 0
-6 5 -8 11 -4 6 3 4 -5 -6 -19 -10 -17 -13 -27 -6 -32 6 -3 11 0 11 7 0 7 9
-3 19 -22 11 -19 23 -34 28 -33 5 1 8 -11 5 -26 -2 -15 4 -45 13 -67 11 -24
19 -76 21 -140 10 -226 21 -139 22 180 1 186 3 341 6 344 3 3 -2 11 -12 18
-10 8 -12 13 -5 14 9 0 10 7 3 26 -14 35 -12 74 3 74 8 0 7 3 -3 9 -8 6 -17 8
-21 5 -4 -2 -9 2 -12 10 -3 8 1 17 9 20 14 5 14 8 0 22 -9 8 -16 24 -16 34 0
10 -5 20 -12 22 -8 3 -9 6 -1 11 5 3 19 -9 29 -28 22 -42 33 -45 29 -7 -2 15
2 33 8 40 8 10 7 12 -4 10 -9 -2 -13 5 -12 20 2 12 -2 22 -7 22 -6 0 -10 -11
-10 -25 0 -14 5 -25 12 -25 9 0 9 -3 0 -12 -15 -15 -24 -6 -25 29 -1 15 -6 32
-12 36 -5 5 7 6 28 3 34 -4 36 -3 27 15 -6 11 -8 25 -4 31 5 7 2 9 -8 6 -19
-8 -45 7 -29 16 6 4 11 2 11 -4 0 -6 5 -8 10 -5 7 4 8 11 1 18 -6 8 -4 16 4
24 11 10 15 10 18 0 3 -7 6 -2 7 11 2 12 4 25 5 30 1 4 6 23 11 42 8 34 8 34
16 10 6 -21 7 -18 5 12 -2 20 1 34 6 31 5 -3 6 4 2 17 -4 12 -3 20 1 17 14 -8
29 15 28 41 -1 12 3 22 8 22 5 0 8 -6 7 -12 -4 -31 3 -42 12 -20 5 13 7 28 3
33 -3 5 0 9 6 9 6 0 9 4 6 8 -3 5 4 15 14 22 18 13 19 15 2 34 -9 11 -11 16
-4 12 8 -5 12 2 13 26 l2 33 6 -35 c6 -29 8 -32 14 -15 4 11 6 37 5 58 -1 20
2 40 5 44 4 3 8 -7 8 -23 2 -24 3 -22 8 11 7 45 4 56 -9 35 -8 -13 -10 -12
-10 3 0 9 4 17 8 17 4 0 7 12 6 28 0 15 5 41 12 59 14 33 10 63 -10 63 -6 0
-3 5 6 11 10 5 15 16 11 24 -3 9 1 23 8 32 12 15 12 16 -3 10 -22 -8 -17 22
13 70 13 20 17 33 9 28 -10 -6 -11 -4 -4 6 13 21 14 39 1 39 -6 0 -1 7 11 16
12 8 20 20 17 25 -4 5 1 12 9 15 9 3 13 10 10 15 -5 8 3 11 48 14 24 1 58 35
51 51 -3 8 0 14 7 14 6 0 9 -4 5 -9 -3 -5 -1 -12 4 -15 5 -4 11 4 13 16 2 13
9 22 16 20 6 -1 12 3 12 10 0 6 3 8 7 4 4 -3 24 10 45 31 21 20 38 33 38 29 0
-5 7 -3 15 4 9 7 34 13 56 12 33 -2 41 2 51 23 8 18 14 22 19 13 6 -9 12 -8
27 5 10 9 24 17 31 17 7 0 10 4 7 8 -6 9 47 52 63 52 6 0 44 23 84 50 74 50
97 59 97 39 0 -6 8 -2 18 10 9 12 27 23 40 26 12 2 27 7 32 10 6 3 10 1 10 -4
0 -20 20 -11 30 12 7 18 9 18 9 4 1 -10 5 -16 10 -13 4 3 17 -4 27 -15 l19
-21 6 28 7 29 1 -27 c0 -16 5 -28 10 -28 5 0 7 14 5 30 -3 17 -1 30 5 30 6 0
11 -13 11 -30 0 -16 4 -30 9 -30 4 0 7 10 6 23 -2 13 3 31 11 42 10 14 14 15
14 4 0 -12 2 -12 10 1 8 12 10 12 16 -4 5 -14 9 -15 16 -4 7 9 8 5 5 -13 -4
-27 18 -37 27 -12 3 8 10 11 16 8 5 -3 10 0 10 7 0 10 3 9 11 -2 8 -12 9 -9 5
13 -7 31 0 34 32 11 12 -8 22 -10 22 -5 0 19 30 12 31 -6 1 -17 2 -17 6 0 2 9
9 15 14 11 6 -3 5 -11 -2 -20 -9 -12 -9 -18 0 -27 9 -9 14 -9 21 3 5 8 6 18 4
22 -3 4 -1 15 4 24 8 14 10 11 14 -15 2 -17 1 -31 -4 -31 -4 0 -8 -4 -8 -10 0
-21 20 -9 26 17 l7 27 9 -25 c9 -23 10 -23 24 -5 10 14 14 16 14 5 0 -12 2
-12 9 0 7 11 12 7 25 -15 13 -24 15 -26 16 -9 1 11 4 14 7 8 7 -19 23 -16 23
5 0 13 2 14 9 3 5 -7 14 -11 20 -7 7 5 9 1 5 -11 -5 -17 -5 -17 6 0 7 10 9 30
6 45 -5 20 -4 23 4 12 5 -8 10 -27 10 -42 0 -16 5 -28 10 -28 6 0 10 -8 11
-17 1 -20 4 -12 14 31 6 27 7 28 21 10 15 -19 15 -19 10 0 -6 16 -4 17 9 6 8
-7 15 -19 15 -27 0 -7 8 -17 18 -20 9 -4 21 -11 25 -17 5 -6 7 1 4 17 -5 33 8
36 18 5 6 -22 7 -22 19 6 l13 29 11 -29 c9 -26 11 -26 11 -6 1 12 -4 31 -11
42 -16 25 -4 37 17 16 21 -20 36 -21 29 -1 -4 9 0 15 10 15 9 0 16 -6 16 -12
0 -7 5 -5 11 5 5 9 15 17 21 17 5 0 7 -8 4 -17 -5 -15 -4 -15 9 1 8 11 15 15
15 8 0 -6 7 -9 16 -5 9 3 12 9 7 12 -5 3 -9 20 -10 36 0 17 1 22 4 11 4 -15 7
-16 14 -5z m1644 4 c160 -4 598 -15 975 -26 377 -10 691 -19 698 -19 6 0 12
-5 12 -12 0 -12 -58 -11 -1050 12 -223 5 -517 12 -655 15 -387 8 -475 14 -475
32 0 13 16 14 103 9 56 -3 233 -8 392 -11z m-100 -140 c132 -3 326 -7 430 -10
105 -3 384 -10 620 -15 522 -12 713 -20 740 -31 11 -4 -42 -6 -120 -3 -77 2
-345 9 -595 14 -250 6 -615 15 -810 20 -195 5 -424 10 -507 11 -128 1 -153 3
-153 16 0 12 13 13 78 9 42 -3 185 -8 317 -11z m105 -125 c195 -5 423 -12 505
-15 83 -2 321 -9 530 -15 495 -14 545 -17 546 -38 1 -15 2 -15 6 1 3 10 13 17
26 16 17 -1 18 -2 5 -6 -11 -3 -18 -14 -18 -29 0 -14 -6 -24 -14 -24 -17 0
-26 -22 -21 -49 2 -13 -1 -18 -9 -15 -7 3 -13 -1 -14 -8 0 -7 -4 -23 -7 -35
-5 -15 -3 -23 5 -23 7 0 10 6 7 13 -7 19 8 43 17 28 4 -6 2 -11 -5 -11 -7 0
-9 -3 -5 -7 4 -5 12 -8 17 -8 5 0 9 -4 8 -9 0 -5 5 -13 13 -17 10 -7 10 -9 1
-9 -7 0 -13 -9 -13 -20 0 -16 -7 -20 -32 -20 -30 0 -33 -3 -34 -30 -1 -28 15
-45 17 -17 0 9 2 9 6 0 2 -7 -3 -20 -11 -29 -15 -14 -16 -14 -16 1 0 9 -4 14
-9 11 -5 -3 -9 0 -8 7 1 29 -4 47 -12 47 -5 0 -8 -16 -6 -35 2 -19 0 -33 -5
-30 -5 3 -7 12 -4 19 3 8 1 17 -5 21 -7 3 -11 -2 -11 -14 0 -24 -53 -39 -76
-20 -12 9 -13 9 -9 -2 2 -8 1 -21 -5 -29 -8 -12 -13 -11 -33 8 -25 23 -57 30
-57 11 0 -6 7 -9 14 -6 10 4 13 1 10 -8 -3 -7 0 -15 8 -18 7 -2 3 -2 -9 0 -18
2 -21 0 -16 -14 5 -11 3 -14 -6 -8 -10 5 -11 2 -7 -13 4 -12 2 -23 -5 -28 -8
-4 -9 -3 -5 4 4 7 2 12 -3 12 -6 0 -11 -9 -11 -20 0 -11 -7 -20 -15 -20 -8 0
-15 -4 -15 -9 0 -4 11 -6 25 -3 30 5 31 0 4 -56 -17 -34 -19 -46 -9 -52 7 -5
2 -7 -14 -7 -21 0 -24 2 -15 13 9 11 8 14 -5 14 -16 0 -16 2 -2 15 8 8 21 15
28 15 9 1 8 4 -3 13 -9 7 -19 23 -23 35 -5 15 -13 21 -22 18 -14 -6 -20 20 -6
26 4 2 -1 11 -11 21 -18 18 -19 18 -12 -2 3 -12 3 -21 -2 -20 -21 4 -25 -2
-10 -13 14 -11 15 -19 6 -51 -6 -21 -8 -50 -5 -65 8 -38 -6 -57 -32 -43 -15 8
-23 8 -28 0 -8 -13 16 -30 30 -22 5 4 7 -1 3 -10 -3 -10 -2 -17 3 -17 6 0 10
5 10 10 0 6 8 10 18 9 11 0 12 -2 4 -6 -10 -4 -9 -8 4 -18 15 -11 12 -12 -24
-10 -40 2 -41 1 -36 -22 7 -26 -14 -76 -28 -67 -13 8 -9 82 5 87 6 3 2 6 -10
6 -17 1 -21 -3 -16 -16 4 -11 3 -14 -5 -9 -7 4 -13 1 -14 -6 0 -7 -2 -24 -4
-38 -1 -14 -4 -35 -7 -47 -4 -16 -2 -20 9 -16 9 3 14 -2 14 -16 0 -12 5 -21
11 -21 5 0 7 -4 4 -10 -7 -12 -26 -14 -24 -2 4 21 -3 31 -23 34 -24 3 -31 27
-13 41 6 5 2 7 -10 5 -13 -2 -22 -14 -26 -33 -4 -17 -7 -22 -8 -11 -1 26 -16
10 -16 -17 0 -13 -6 -22 -15 -22 -8 0 -14 6 -13 13 2 6 -4 12 -13 12 -14 0
-14 2 -3 16 12 14 11 16 -6 12 -12 -2 -19 -10 -17 -21 2 -11 -4 -17 -15 -17
-12 0 -19 -7 -19 -20 0 -11 6 -20 13 -20 21 0 15 -38 -8 -45 -16 -5 -18 -10
-8 -21 9 -11 7 -14 -15 -14 -14 0 -26 -4 -26 -10 0 -5 -7 -10 -15 -10 -8 0
-15 -9 -15 -21 0 -11 -4 -17 -10 -14 -5 3 -10 1 -10 -4 0 -6 4 -11 9 -11 5 0
9 -11 9 -25 0 -15 -5 -22 -11 -18 -6 4 -8 0 -4 -10 3 -8 0 -18 -8 -20 -8 -4
-15 4 -18 21 -6 28 -41 57 -57 47 -18 -11 -10 -24 18 -27 22 -2 28 -8 30 -35
2 -21 -1 -33 -9 -33 -6 0 -9 8 -6 19 3 14 1 18 -9 14 -17 -6 -18 -29 -3 -39 8
-4 7 -9 -2 -15 -10 -6 -11 -9 -1 -9 6 0 12 -8 12 -17 0 -13 -3 -14 -12 -5 -20
20 -27 14 -15 -13 7 -14 17 -25 24 -25 6 0 9 -9 6 -20 -5 -18 -35 -30 -32 -12
3 20 -2 32 -13 30 -7 -2 -13 4 -12 12 1 9 -5 21 -13 29 -12 10 -13 8 -7 -13 7
-30 -10 -36 -25 -8 -9 16 -10 16 -16 0 -4 -10 -17 -19 -29 -19 -19 -1 -19 -2
-2 -6 15 -4 16 -7 5 -14 -11 -7 -11 -9 2 -9 9 0 22 -7 29 -15 9 -10 9 -15 1
-15 -6 0 -11 4 -11 10 0 5 -7 7 -16 3 -11 -4 -14 -14 -10 -34 4 -20 2 -28 -7
-26 -6 1 -11 -4 -9 -10 1 -7 -4 -13 -12 -13 -21 0 -28 -17 -20 -43 l8 -22 7
25 c6 21 7 19 8 -15 0 -26 -2 -35 -8 -26 -5 8 -16 11 -30 6 -12 -3 -19 -11
-15 -16 4 -6 11 -6 20 2 11 9 14 9 14 -1 0 -6 -9 -14 -20 -17 -11 -3 -17 -9
-14 -14 3 -5 0 -9 -5 -9 -6 0 -11 7 -11 15 0 8 -9 19 -19 25 -30 16 -39 11
-11 -6 20 -12 21 -14 4 -9 -18 5 -21 1 -19 -25 1 -19 -3 -30 -12 -30 -7 0 -13
-4 -13 -10 0 -5 -6 -10 -14 -10 -8 0 -17 -8 -21 -17 -7 -17 -8 -16 -15 2 -8
18 -9 17 -11 -7 -3 -42 -3 -43 -21 -62 -17 -17 -18 -17 -18 1 -1 17 -1 17 -14
0 -8 -10 -12 -28 -9 -40 3 -14 2 -18 -4 -10 -6 8 -14 9 -23 3 -11 -7 -12 -10
-2 -10 34 0 -4 -19 -51 -25 -28 -4 -59 -13 -67 -20 -8 -8 -18 -14 -23 -14 -4
0 -32 -8 -62 -17 -53 -17 -56 -17 -71 2 -15 19 -15 18 -11 -3 4 -16 1 -20 -11
-16 -9 4 -13 2 -9 -4 6 -9 -44 -31 -85 -37 -10 -1 -21 -5 -24 -9 -11 -10 -54
-8 -54 2 0 6 4 12 9 15 4 3 7 18 5 33 -2 16 -1 22 2 16 12 -26 22 -12 13 19
-5 17 -7 34 -4 36 2 3 0 13 -6 23 -6 12 -6 19 0 19 5 0 7 9 4 20 -4 16 -2 19
13 14 18 -5 18 -5 2 6 -19 11 -26 76 -8 65 6 -3 8 10 5 35 -2 25 0 40 8 40 8
0 8 3 0 11 -8 8 -8 20 -3 34 5 13 6 27 2 31 -4 5 1 2 11 -5 20 -15 23 -2 5 18
-9 10 -9 12 -1 7 20 -11 23 9 4 38 -21 32 -17 68 6 59 13 -5 13 -3 1 17 -8 14
-9 24 -3 26 6 2 10 20 9 39 -1 20 4 42 12 50 8 7 11 21 8 29 -3 9 -1 16 5 16
7 0 6 9 -4 24 -12 17 -13 25 -4 28 9 3 9 9 1 24 -10 19 -8 20 21 17 28 -3 29
-2 10 6 -23 10 -22 41 1 41 6 0 3 5 -7 11 -13 8 -15 14 -7 29 5 10 10 25 9 32
0 7 -4 4 -9 -7 -5 -14 -7 -8 -6 22 1 28 6 43 14 43 7 0 10 5 7 10 -4 6 -11 8
-16 5 -11 -7 -11 -3 -3 19 3 9 10 13 15 10 12 -7 -2 28 -18 44 -7 7 -13 19
-13 25 0 7 4 6 10 -3 8 -13 10 -12 10 3 0 9 6 17 13 18 6 0 2 5 -10 11 -26 12
-31 38 -9 38 22 0 -1 61 -25 67 -10 3 -15 11 -12 19 4 11 7 11 20 -1 8 -8 22
-15 31 -14 13 0 11 3 -5 11 -26 12 -29 28 -10 47 10 11 8 12 -10 6 -14 -4 -23
-2 -23 5 0 6 -11 22 -25 35 -15 16 -19 25 -10 25 8 0 17 5 21 12 5 8 2 9 -9 5
-11 -4 -17 -1 -17 8 0 8 -8 23 -19 34 -25 25 -30 42 -19 64 6 12 5 17 -7 17
-8 0 -15 9 -15 20 0 11 -4 20 -10 20 -18 0 -11 17 13 28 19 9 18 10 -12 5 -30
-5 -34 -4 -27 12 5 15 4 16 -9 5 -20 -17 -32 -5 -15 15 12 14 10 16 -16 10
-21 -5 -25 -4 -14 4 12 9 12 11 -3 17 -19 7 -23 54 -7 83 8 16 5 19 -15 19
-16 0 -25 -6 -25 -17 0 -14 -2 -14 -9 -1 -6 8 -7 28 -5 45 4 23 3 27 -5 15 -9
-13 -11 -12 -11 3 0 10 -4 16 -9 13 -17 -11 -18 19 -2 32 14 11 14 11 -1 6
-12 -4 -18 -1 -18 10 0 19 -5 19 480 6z m-5885 -1179 c217 -103 532 -265 667
-342 53 -30 77 -50 78 -63 0 -15 3 -16 15 -6 12 10 27 6 82 -23 41 -21 69 -42
72 -53 2 -11 0 -16 -4 -12 -5 4 -14 3 -22 -4 -7 -6 -16 -8 -20 -4 -3 3 -1 6 5
6 7 0 12 4 12 9 0 5 -9 7 -19 4 -10 -3 -28 0 -39 6 -16 8 -21 7 -26 -5 -3 -8
-2 -12 3 -9 18 11 21 -14 4 -31 -16 -16 -16 -16 5 -10 14 5 22 3 22 -4 0 -7 6
-5 15 4 9 8 23 12 32 9 13 -5 12 -9 -8 -24 -13 -10 -19 -19 -14 -19 6 0 2 -5
-8 -11 -21 -12 -46 -1 -26 12 9 6 3 7 -17 3 -22 -4 -62 6 -150 41 -65 26 -182
71 -259 101 -166 64 -538 209 -862 337 l-233 92 0 173 0 173 243 -125 c133
-68 337 -169 452 -225z m-565 -302 c58 -18 108 -38 113 -44 8 -11 7 -700 -2
-1130 -4 -160 -9 -260 -14 -244 -5 14 -6 48 -4 76 5 51 4 52 -22 51 -24 -1
-27 -5 -24 -27 3 -23 2 -24 -6 -6 -5 11 -10 16 -11 10 0 -5 -7 -2 -14 8 -9 12
-16 14 -21 7 -3 -5 -11 -7 -18 -3 -6 3 -33 5 -59 4 l-48 -2 0 161 c0 144 2
161 16 156 9 -3 20 -6 25 -6 4 0 6 -7 2 -16 -4 -10 1 -20 11 -26 13 -7 15 -13
6 -23 -7 -8 -8 -20 -4 -26 5 -9 1 -10 -14 -7 -24 7 -24 10 -24 -92 0 -39 4
-65 10 -65 6 0 14 -3 18 -7 4 -4 32 -5 62 -1 39 4 56 2 62 -7 6 -10 12 -9 28
6 16 15 20 30 18 64 -1 25 1 52 5 61 5 9 9 212 9 450 1 554 2 519 -10 519 -5
0 -7 -7 -4 -15 7 -18 -7 -20 -25 -2 -11 10 -13 10 -7 0 4 -7 5 -13 2 -13 -2 0
-12 -3 -22 -7 -11 -4 -15 -3 -10 5 3 6 -2 16 -13 22 -11 6 -18 17 -15 24 3 8
0 24 -6 36 -10 19 -14 20 -28 7 -20 -16 -50 -34 -40 -22 11 11 -20 38 -37 31
-10 -3 -15 1 -15 13 0 12 7 17 21 17 12 -1 24 5 27 13 3 10 0 12 -12 8 -9 -4
-16 -2 -16 4 0 6 -4 7 -10 4 -6 -4 -10 10 -10 35 0 30 4 41 13 38 6 -3 59 -20
117 -39z m331 -110 c35 -12 69 -27 74 -33 6 -6 21 -12 35 -13 56 -4 212 -51
206 -62 -3 -4 26 -12 62 -19 67 -12 95 -20 226 -61 37 -12 71 -19 74 -16 3 3
-3 8 -15 11 -25 7 -28 47 -3 41 8 -2 14 -9 12 -15 -1 -7 2 -12 7 -12 9 0 27
-74 23 -96 -1 -6 10 -12 25 -12 16 -1 40 -4 56 -6 15 -2 27 1 27 5 0 5 -6 9
-12 10 -7 0 -25 2 -40 2 -15 1 -28 7 -28 12 -1 19 37 16 115 -10 42 -14 85
-25 94 -25 9 -1 27 -8 41 -16 24 -15 24 -15 2 -11 -14 3 -21 1 -20 -6 3 -13
-4 -17 -28 -17 -11 0 -15 6 -11 20 3 11 1 18 -3 15 -5 -3 -10 0 -12 6 -3 9
-12 7 -30 -5 -19 -13 -31 -14 -51 -7 -20 8 -25 7 -21 -3 7 -17 -31 -27 -46
-12 -9 8 -14 8 -17 -1 -3 -7 -12 -13 -21 -13 -12 0 -13 -3 -4 -12 16 -16 15
-28 -3 -28 -8 0 -15 -4 -15 -9 0 -5 18 -8 39 -8 37 2 48 17 13 17 -15 1 -15 2
2 15 16 12 22 12 35 2 12 -9 13 -9 7 1 -4 7 -1 12 9 12 15 0 24 -6 58 -36 7
-6 25 -11 40 -11 16 0 30 -2 32 -4 5 -6 9 -67 7 -127 -2 -50 -3 -53 -24 -46
-13 3 -25 11 -26 15 -2 5 -8 6 -13 3 -6 -3 -16 0 -24 6 -8 7 -36 13 -62 14
-30 0 -47 5 -46 13 1 6 -4 13 -11 16 -9 4 -12 0 -9 -12 3 -12 -3 -17 -21 -19
-33 -2 -69 57 -59 96 4 15 6 33 5 40 -2 6 2 12 8 12 5 0 10 9 10 21 0 11 5 17
10 14 6 -3 10 -1 10 4 0 16 -36 13 -50 -4 -12 -14 -15 -13 -32 5 -26 28 -17
53 17 44 19 -5 25 -2 25 10 0 9 4 16 10 16 5 0 7 7 4 15 -4 9 0 15 10 15 17 0
22 15 7 25 -7 4 -312 15 -417 15 -7 0 -9 10 -6 25 3 16 11 25 24 25 11 0 16 5
13 10 -8 13 -45 9 -61 -5 -7 -6 -9 -18 -4 -31 6 -16 4 -21 -8 -21 -10 0 -20 5
-24 11 -5 8 -8 7 -8 -1 0 -19 -56 -16 -79 4 -11 9 -18 20 -15 24 2 4 -5 10
-16 14 -11 4 -18 11 -15 16 3 5 -1 6 -9 3 -9 -3 -13 -11 -9 -17 3 -6 1 -7 -6
-3 -6 4 -9 11 -6 16 3 5 -4 14 -15 20 -13 7 -20 7 -20 0 0 -5 -5 -10 -11 -10
-6 0 -9 6 -6 13 3 8 -3 13 -14 13 -21 0 -25 -11 -7 -22 7 -5 4 -10 -10 -15
-14 -5 -20 -14 -16 -24 3 -8 1 -15 -5 -15 -7 0 -11 35 -11 105 0 58 4 105 8
105 4 0 37 -10 73 -21z m-138 -82 c-6 -46 12 -43 19 3 3 14 5 -83 6 -215 1
-132 -3 -257 -7 -277 -5 -22 -5 -36 0 -32 5 3 9 -4 9 -16 0 -12 -4 -19 -9 -16
-13 8 -19 -25 -14 -70 6 -53 6 -57 2 -74 -2 -8 2 -14 9 -12 18 3 15 -15 -4
-22 -11 -4 -15 -14 -12 -31 3 -13 2 -22 -3 -20 -4 3 -8 95 -8 205 0 150 3 200
12 200 9 0 9 2 0 8 -14 9 -15 35 -13 260 0 89 5 160 9 157 5 -3 7 -24 4 -48z
m1908 6 c1 -17 3 -21 6 -10 5 19 25 24 22 5 -1 -7 -1 -22 0 -33 2 -19 3 -19
13 3 11 22 28 30 28 12 0 -5 4 -10 9 -10 19 0 120 -65 117 -75 -1 -5 1 -22 5
-37 6 -24 5 -28 -12 -28 -13 0 -19 7 -19 24 0 62 -35 69 -46 10 -5 -29 -9 -32
-25 -23 -10 5 -19 7 -19 4 0 -3 -9 4 -20 15 -12 12 -25 18 -30 15 -5 -3 -12 4
-15 16 -6 17 -9 18 -16 8 -4 -7 -11 -11 -14 -7 -11 10 -18 85 -11 112 8 34 26
33 27 -1z m4225 -494 c2 -85 -18 -204 -46 -274 -32 -78 -105 -216 -121 -226
-6 -3 -11 -9 -10 -12 0 -15 -53 -127 -61 -127 -4 0 -8 -12 -8 -26 0 -14 -4
-23 -9 -19 -12 7 -1 47 32 111 42 83 58 153 58 266 1 64 7 120 16 144 8 21 15
44 17 49 7 25 30 65 38 65 4 0 8 9 8 20 0 14 5 18 17 13 13 -5 15 -2 11 15 -4
12 -2 20 2 17 15 -9 41 7 36 22 -4 9 -1 13 6 11 8 -3 13 -23 14 -49z m-173
-271 c-2 -73 -9 -153 -15 -178 -17 -70 -48 -129 -70 -136 -15 -4 -17 -8 -8
-14 9 -5 9 -9 1 -14 -6 -4 -9 -12 -6 -17 4 -5 0 -9 -7 -9 -19 0 -38 51 -32 85
3 17 12 62 21 100 8 39 20 94 26 123 8 35 16 52 27 53 10 0 11 2 2 6 -20 8 -3
74 27 106 14 15 29 27 32 27 3 0 4 -60 2 -132z m975 -146 c0 -136 -3 -170 -15
-184 -15 -17 -11 -54 5 -44 4 2 7 -37 6 -87 -1 -51 3 -97 8 -104 5 -7 5 -14 0
-17 -10 -6 -27 39 -23 62 1 6 -3 12 -9 12 -5 0 -10 -9 -10 -19 0 -11 -4 -22
-8 -25 -4 -2 -6 25 -4 60 3 41 0 70 -7 77 -6 6 -11 22 -12 36 0 23 -1 24 -8 6
-5 -11 -4 -33 0 -50 12 -41 11 -95 -1 -95 -5 0 -10 5 -10 11 0 6 -7 8 -15 5
-9 -3 -18 1 -21 9 -7 17 -44 20 -44 4 0 -7 -10 1 -22 17 -13 16 -26 31 -30 32
-5 2 -8 12 -8 23 0 16 -3 18 -19 10 -10 -6 -21 -7 -25 -4 -3 3 -6 -6 -6 -20 0
-15 -3 -26 -7 -26 -22 4 -35 -2 -30 -14 2 -6 -2 -18 -9 -25 -9 -8 -14 -9 -14
-2 0 6 -4 8 -10 5 -9 -5 -15 15 -11 37 0 5 2 45 2 90 1 46 4 87 7 92 3 5 4 35
3 67 -1 32 2 60 8 64 6 3 11 1 11 -6 0 -7 10 -9 24 -7 14 3 31 1 38 -4 10 -7
8 -8 -4 -4 -21 6 -23 0 -5 -18 17 -17 37 -9 37 15 0 27 30 24 31 -3 2 -23 2
-23 6 -1 3 17 11 21 34 21 16 -1 29 -5 29 -11 0 -6 5 -6 13 0 19 16 83 23 96
10 8 -8 11 -4 11 16 0 21 -4 26 -19 24 -27 -3 -31 17 -5 21 15 2 21 11 23 40
1 20 3 47 4 59 1 11 5 19 9 17 3 -2 6 -80 6 -172z m450 -202 c-2 -180 0 -294
6 -300 7 -7 3 -10 -11 -10 -12 0 -25 -4 -28 -10 -3 -5 -21 -10 -40 -10 -22 0
-38 -6 -44 -17 -13 -22 -15 1 -2 25 6 11 4 21 -5 30 -8 7 -14 10 -14 5 0 -4
-7 2 -16 13 -15 19 -16 19 -9 0 5 -19 5 -19 -12 -4 -18 16 -22 18 -44 18 -5 0
-7 5 -4 10 4 6 4 33 0 60 -6 47 -9 50 -36 50 -30 0 -35 14 -29 80 2 14 3 52 4
85 1 42 5 59 14 58 16 -4 15 15 -2 32 -14 15 -12 83 4 99 19 19 53 -9 64 -55
l12 -45 -28 4 c-16 3 -28 0 -28 -7 0 -6 7 -11 15 -11 8 0 15 -4 15 -9 0 -14
44 -21 52 -8 4 7 8 -39 8 -100 l0 -113 -24 0 c-14 0 -28 -4 -31 -10 -4 -6 7
-10 24 -10 29 0 31 -3 32 -37 l2 -38 6 38 c3 21 9 38 14 37 4 0 12 0 17 0 7 0
9 32 5 95 -7 96 -1 140 16 129 5 -3 6 -10 3 -16 -4 -6 -2 -8 4 -4 5 3 13 0 15
-6 3 -8 6 -6 6 5 1 20 46 24 54 5 3 -7 6 3 6 23 1 36 -18 57 -39 44 -5 -3 -11
-1 -15 5 -4 6 6 10 24 10 20 0 31 5 31 14 0 10 -9 13 -30 10 -28 -5 -29 -3
-21 18 4 13 11 22 15 21 3 -2 11 -3 17 -3 5 0 7 -4 4 -10 -3 -5 -1 -10 4 -10
7 0 11 23 11 55 0 30 2 55 5 55 3 0 4 -131 3 -290z m-2814 256 c-2 -19 12 -22
19 -3 2 6 3 0 1 -14 -2 -22 3 -28 39 -41 23 -9 41 -20 40 -26 -2 -6 6 -14 17
-17 11 -4 20 -13 20 -22 0 -10 6 -13 16 -9 13 5 15 2 11 -14 -3 -11 -1 -20 4
-20 5 0 9 -10 9 -23 0 -13 5 -28 11 -34 9 -9 7 -16 -5 -29 -14 -14 -15 -19 -4
-25 10 -7 10 -9 1 -9 -7 0 -16 1 -19 3 -3 1 -11 -9 -19 -22 -14 -27 -54 -38
-66 -19 -7 10 -11 10 -21 0 -15 -15 -32 -16 -22 0 5 7 3 8 -6 3 -7 -4 -16 -2
-21 6 -7 12 -9 11 -9 -1 0 -12 -2 -12 -8 -2 -5 7 -7 32 -5 55 8 100 7 111 -9
101 -7 -4 -8 -3 -4 4 4 7 -2 22 -13 34 -22 22 -25 46 -15 86 4 14 12 21 20 18
8 -3 13 -2 13 2 -4 24 3 43 14 39 6 -2 11 -12 11 -21z m1996 -61 c0 -33 -4
-45 -15 -45 -8 0 -15 -9 -15 -19 0 -11 -5 -23 -10 -26 -8 -5 -7 -11 0 -20 7
-8 10 -34 9 -59 -2 -25 0 -48 4 -52 4 -4 7 -2 7 4 0 7 5 12 10 12 13 0 13 -36
-1 -61 -7 -14 -7 -30 -1 -48 10 -27 8 -29 -29 -40 -54 -16 -64 -36 -13 -28 27
4 34 3 24 -3 -11 -8 -12 -12 -3 -18 10 -6 9 -14 -3 -36 -14 -29 -11 -66 7 -66
5 0 9 -13 9 -30 0 -18 -5 -30 -13 -30 -8 0 -13 -10 -12 -22 2 -33 -24 -59 -47
-47 -14 8 -24 7 -35 -3 -15 -12 -15 -11 -2 12 19 34 20 63 3 56 -8 -3 -14 1
-14 9 0 8 -5 15 -12 15 -6 0 -8 -3 -5 -7 4 -3 0 -14 -9 -24 -15 -17 -17 -16
-50 3 -19 11 -34 27 -34 36 0 13 2 14 9 4 6 -10 10 -7 15 11 3 14 14 27 23 29
15 3 15 4 -1 21 -10 9 -13 17 -7 17 6 0 11 7 11 16 0 8 4 13 9 9 5 -3 13 0 17
6 4 8 3 9 -4 5 -18 -11 -14 10 4 24 8 8 20 22 26 34 7 13 -5 7 -33 -17 -24
-21 -47 -50 -50 -65 l-7 -27 -1 30 c-1 19 6 37 19 48 21 18 26 37 10 37 -5 0
-10 10 -11 23 0 21 -1 21 -9 2 -11 -24 -10 203 0 280 4 28 8 44 9 37 0 -7 6
-10 11 -7 6 3 10 -2 10 -12 0 -14 3 -12 13 7 9 19 20 25 45 25 19 0 32 -5 32
-12 0 -8 9 -4 21 8 19 19 22 19 44 5 23 -15 24 -14 30 14 9 43 15 37 15 -15z
m441 -9 c9 5 10 2 6 -9 -3 -9 -2 -19 3 -22 6 -4 10 0 10 8 0 8 7 17 15 21 11
4 15 -1 15 -17 0 -13 6 -29 13 -36 10 -11 9 -13 -5 -8 -10 4 -18 2 -18 -3 0
-4 -13 -11 -30 -15 -21 -5 -30 -13 -30 -26 0 -18 17 -24 62 -20 9 1 19 -3 23
-9 6 -10 9 -145 4 -167 -1 -5 -1 -11 0 -15 0 -5 -3 -8 -9 -8 -5 0 -7 -7 -3
-16 5 -14 3 -15 -15 -5 -11 6 -37 11 -56 11 l-35 0 1 168 c1 183 4 205 24 177
7 -10 18 -14 25 -9z m-6026 -86 c5 -8 11 -7 21 1 11 9 14 7 14 -9 0 -11 6 -22
13 -25 7 -2 8 -8 3 -13 -5 -5 -11 -4 -13 4 -7 19 -23 14 -23 -8 0 -22 3 -23
37 -14 14 4 24 17 28 35 4 16 10 29 15 29 7 0 20 -83 22 -137 0 -25 21 -36 52
-28 20 6 20 5 -3 -14 -12 -12 -27 -18 -33 -15 -5 3 -19 -4 -30 -16 -11 -12
-26 -19 -33 -16 -7 2 -16 -2 -19 -9 -5 -13 -76 -55 -94 -55 -4 0 -17 7 -28 16
-10 8 -13 13 -7 9 9 -4 11 -1 7 9 -3 9 -1 16 5 16 18 0 1 28 -22 35 -17 5 -18
8 -7 12 15 6 44 32 38 34 -20 8 -48 4 -48 -8 0 -20 -17 -7 -23 18 -4 15 -2 19
9 15 11 -4 14 -1 9 13 -3 11 -1 22 4 26 6 3 8 0 5 -8 -11 -29 58 -42 82 -16
14 15 14 21 4 34 -8 10 -9 15 -1 15 17 0 13 37 -4 44 -8 3 -15 12 -15 21 0 17
25 20 35 5z m4853 -182 c-2 -49 9 -91 29 -105 13 -10 14 -13 2 -13 -10 0 -14
-11 -14 -39 0 -22 -4 -37 -9 -34 -5 4 -7 -1 -3 -10 3 -9 3 -16 -1 -14 -16 5
-38 -28 -34 -50 6 -29 19 -30 25 0 l4 22 2 -22 c2 -43 -79 -72 -116 -41 -10 8
-13 6 -13 -8 0 -13 -3 -15 -11 -7 -9 9 -3 40 24 125 20 62 45 147 57 189 22
75 23 76 41 58 12 -12 18 -31 17 -51z m-5191 10 c1 -12 -3 -26 -10 -30 -15
-10 12 -30 31 -23 6 2 12 -2 12 -10 0 -8 -8 -15 -17 -15 -19 -1 -62 -50 -44
-50 5 0 16 9 24 20 8 12 20 18 30 15 8 -4 18 -2 22 4 4 8 12 8 26 1 11 -6 19
-7 19 -2 0 6 8 12 19 15 23 6 25 53 3 62 -14 5 -14 7 -2 15 20 12 42 -8 35
-31 -6 -17 -1 -18 47 -16 49 2 53 0 56 -22 2 -15 0 -21 -7 -17 -19 12 -12 -12
9 -31 19 -19 19 -19 -3 -32 -21 -13 -21 -13 -7 4 14 17 14 17 -17 2 -25 -14
-34 -14 -45 -4 -7 6 -24 13 -38 14 -47 5 -85 11 -113 18 -23 6 -26 5 -20 -11
5 -14 3 -16 -11 -11 -12 5 -19 2 -23 -10 -2 -10 -15 -26 -29 -36 -29 -22 -31
-18 -4 13 24 27 26 42 5 34 -8 -4 -15 -1 -15 6 0 6 5 8 10 5 6 -3 10 4 10 17
0 16 -3 19 -9 10 -6 -10 -10 -9 -14 7 -3 12 -10 21 -16 21 -6 0 -8 -7 -5 -15
3 -8 -1 -24 -10 -37 -9 -12 -16 -17 -16 -10 0 6 -5 12 -11 12 -5 0 -7 -5 -4
-10 3 -6 -1 -17 -9 -26 -15 -14 -16 -14 -16 3 0 10 6 28 14 39 8 11 11 26 7
33 -10 16 -21 16 -33 -1 -6 -9 -7 -5 -2 12 3 14 13 32 20 41 8 9 13 18 12 20
-2 2 5 -5 14 -16 19 -23 15 -34 -6 -16 -8 7 -17 8 -20 3 -9 -14 42 -24 62 -13
10 6 12 11 5 11 -16 0 -17 36 -1 46 8 5 9 2 5 -9 -4 -12 -1 -17 12 -17 14 0
17 -7 16 -30 -1 -23 2 -30 17 -30 21 0 21 1 7 33 -8 18 -8 30 0 46 15 27 26
27 28 -1z m583 -78 c0 -15 7 -20 26 -20 22 0 24 -3 15 -14 -7 -8 -21 -12 -31
-9 -20 5 -23 1 -35 -51 -5 -23 -9 -26 -15 -16 -5 8 -6 17 -2 20 9 7 11 50 2
50 -4 0 -21 -5 -39 -11 -35 -13 -76 -4 -51 11 18 11 21 50 4 43 -7 -3 -16 -13
-19 -24 -7 -20 -25 -27 -25 -9 0 6 -5 10 -11 10 -6 0 -8 -9 -4 -20 5 -14 2
-20 -9 -20 -9 0 -16 -4 -16 -8 0 -5 -10 -8 -22 -6 -13 1 -29 3 -36 3 -21 1 -4
19 36 38 20 9 42 22 47 29 16 19 67 31 108 26 24 -3 37 0 37 7 0 9 5 9 20 1
11 -6 20 -20 20 -30z m-105 -580 c-11 -5 -16 -9 -11 -9 5 -1 3 -7 -3 -15 -10
-12 -8 -14 11 -9 18 4 20 3 8 -6 -13 -9 -12 -11 4 -11 16 0 15 -3 -8 -21 -23
-18 -25 -23 -14 -38 12 -14 11 -14 -4 -3 -9 8 -22 11 -28 7 -7 -5 -5 -12 7
-21 16 -13 16 -14 1 -8 -10 3 -19 1 -19 -5 -1 -6 -3 -15 -4 -21 -1 -5 -3 -18
-4 -27 -2 -16 -3 -15 -10 2 -5 11 -5 28 0 37 15 29 10 39 -11 20 -11 -9 -16
-18 -11 -20 13 -4 -29 -52 -46 -52 -7 0 -13 -8 -13 -18 0 -30 -13 -34 -27 -10
-7 13 -12 17 -13 11 0 -7 -7 -13 -16 -13 -14 0 -14 3 -4 15 11 13 10 14 -4 9
-9 -3 -16 -11 -16 -16 0 -6 -6 -8 -14 -5 -13 5 -31 -18 -28 -34 1 -3 -12 -6
-28 -7 -16 0 -39 -10 -51 -21 -12 -11 -26 -18 -31 -15 -4 3 -8 2 -8 -3 0 -11
-59 -37 -90 -40 -14 -1 -20 1 -14 5 6 4 19 26 30 49 13 30 26 43 44 46 18 3
14 4 -13 6 -25 1 -36 -3 -35 -11 2 -7 -5 -12 -14 -10 -9 1 -18 -4 -20 -12 -3
-13 -6 -13 -28 -1 l-25 14 26 1 c15 0 32 7 39 15 11 13 10 15 -6 9 -16 -5 -16
-4 -4 5 8 6 21 11 28 11 6 0 59 27 116 60 57 33 113 60 124 60 10 0 32 11 47
24 29 25 168 86 195 85 10 0 8 -3 -5 -9z m-633 -263 c-9 -10 -6 -17 8 -27 22
-16 27 -55 8 -66 -6 -4 -16 -1 -22 7 -6 8 -18 15 -26 15 -8 1 -32 5 -52 9 -27
5 -38 4 -38 -4 0 -7 4 -10 9 -7 5 4 20 2 33 -3 l23 -10 -22 0 c-13 -1 -23 -5
-23 -10 0 -5 -12 -14 -27 -20 -27 -10 -27 -11 7 -6 19 3 29 2 21 -1 -10 -5
-10 -8 -1 -14 8 -5 7 -9 -5 -13 -11 -5 -14 -3 -9 5 5 8 2 9 -12 3 -10 -5 -32
-7 -49 -6 -16 2 -46 4 -67 4 -30 2 -34 4 -25 16 7 8 32 24 57 35 25 12 66 36
92 54 52 36 84 50 112 51 14 1 16 -2 8 -12z m-206 -189 c4 -6 3 -8 -4 -4 -6 3
-13 2 -17 -4 -3 -5 6 -12 20 -16 14 -3 25 -10 25 -15 0 -10 -48 -24 -72 -21
-9 2 -20 -3 -24 -9 -5 -9 -2 -10 10 -6 11 4 15 3 10 -4 -3 -6 -15 -9 -25 -6
-11 3 -19 1 -19 -5 0 -6 -7 -7 -16 -4 -8 3 -12 2 -9 -4 6 -9 -9 -15 -29 -11
-5 1 -4 -4 2 -12 15 -17 -3 -37 -33 -37 -25 0 -96 -81 -77 -88 7 -2 9 -9 6
-14 -4 -7 -2 -8 5 -4 8 6 9 12 2 20 -8 9 -4 19 12 34 13 12 26 20 29 17 3 -3
16 -1 29 5 23 10 23 10 -4 5 -19 -4 -26 -2 -22 5 3 5 16 10 29 10 13 0 31 9
40 19 10 11 29 22 42 25 14 4 22 11 19 15 -3 5 5 7 17 3 14 -3 19 -1 14 6 -5
8 -1 10 10 5 12 -4 15 -3 10 6 -4 6 -4 10 1 9 4 -1 19 4 33 11 25 14 25 14 -2
-12 -15 -14 -39 -29 -55 -35 -15 -5 -27 -15 -25 -22 2 -7 -5 -9 -19 -5 -25 8
-70 -32 -50 -45 9 -5 8 -9 -4 -14 -9 -3 -13 -11 -9 -17 5 -8 1 -8 -14 0 -16 9
-25 7 -44 -10 -22 -19 -22 -20 -1 -10 41 20 38 11 -7 -19 -33 -22 -40 -30 -25
-30 15 0 17 -3 7 -9 -8 -4 -13 -11 -12 -15 0 -4 -6 -13 -14 -21 -13 -13 -15
-13 -13 4 1 12 6 17 15 13 11 -4 12 -1 4 14 -10 19 -12 26 -12 45 0 5 -5 7
-12 3 -8 -5 -9 -2 -4 11 4 11 2 22 -6 27 -9 5 -7 8 8 8 12 0 27 7 34 16 12 13
10 14 -13 3 -15 -7 -29 -10 -31 -8 -2 2 -7 25 -10 50 -6 44 -4 48 29 77 19 17
54 36 77 42 24 6 63 17 88 25 58 17 97 18 106 3z m-357 -504 c-10 -12 -14 -12
-20 -2 -6 9 -9 9 -9 1 0 -22 19 -24 40 -3 25 25 34 26 21 1 -6 -10 -8 -21 -4
-25 3 -3 -9 -13 -28 -21 -31 -15 -31 -15 -6 -10 22 4 27 3 21 -7 -4 -7 2 -4
15 6 17 16 24 17 34 7 9 -10 9 -12 -3 -10 -14 3 -76 -50 -72 -61 1 -3 -4 -5
-11 -5 -8 0 -21 -8 -31 -17 -9 -10 -24 -14 -32 -11 -13 5 -13 7 -2 14 10 7 9
9 -4 9 -10 0 -18 5 -18 11 0 5 5 7 10 4 6 -3 10 -1 10 5 0 6 6 8 13 5 6 -4 4
0 -5 8 -20 16 -24 47 -7 47 5 0 7 5 4 10 -4 6 0 21 9 34 11 18 22 23 46 20 21
-3 29 0 24 8 -4 7 -3 8 5 4 9 -6 9 -11 0 -22z m5681 -596 c0 -4 -6 -8 -13 -8
-9 0 -12 -10 -9 -30 2 -16 8 -30 13 -30 5 0 9 -4 9 -10 0 -5 -5 -9 -12 -7 -11
2 -13 -22 -10 -86 1 -16 6 -26 12 -22 6 4 10 12 9 18 -4 37 2 87 11 82 12 -7
2 23 -14 44 -8 11 -8 13 2 7 8 -5 12 -1 12 11 0 10 5 25 10 33 6 10 8 4 4 -22
-5 -28 -1 -44 16 -68 17 -24 21 -41 18 -80 -1 -28 1 -50 6 -50 5 0 3 -6 -3
-14 -6 -8 -11 -18 -10 -22 3 -20 -3 -32 -32 -65 -17 -19 -34 -41 -39 -49 -5
-8 -12 -11 -16 -7 -4 4 1 13 11 20 16 13 16 14 0 14 -9 0 -21 -11 -26 -24 -5
-12 -15 -23 -24 -23 -14 0 -20 -12 -16 -33 1 -5 -3 -6 -8 -3 -5 4 -15 -2 -21
-11 -10 -16 -11 -15 -7 5 3 12 1 20 -4 16 -5 -3 -9 -11 -9 -19 0 -8 -5 -17
-12 -21 -8 -5 -9 -2 -5 9 3 10 2 17 -3 17 -4 0 -11 -13 -15 -29 -5 -22 -11
-28 -22 -24 -12 5 -15 2 -11 -8 7 -18 -18 -44 -26 -26 -3 7 -8 3 -11 -10 -4
-13 -11 -23 -16 -23 -5 0 -9 -6 -9 -13 0 -8 -7 -14 -15 -14 -21 0 -19 8 10 36
14 13 25 30 25 38 0 8 5 11 10 8 6 -3 10 0 10 8 0 8 9 22 20 32 11 10 20 24
20 30 0 7 13 29 29 49 17 21 35 54 42 74 6 20 17 44 23 52 19 25 34 82 35 140
2 77 17 119 42 117 10 -1 19 -5 19 -9z m-4674 -593 c-3 -8 -1 -15 4 -15 6 0
10 7 10 15 0 8 7 15 15 15 8 0 15 -4 15 -10 0 -5 -6 -10 -12 -10 -9 0 -8 -3 2
-10 13 -8 13 -13 -3 -40 -10 -16 -13 -30 -8 -30 6 0 11 6 11 14 0 25 58 59 87
51 19 -4 23 -9 14 -14 -9 -6 -10 -11 -2 -15 6 -4 11 -17 11 -29 0 -17 2 -19
10 -7 5 8 12 11 17 7 19 -20 -83 -39 -174 -32 -24 1 -40 -2 -37 -6 3 -5 3 -9
0 -9 -16 0 -26 41 -15 61 11 22 11 21 35 -7 13 -16 23 -23 24 -16 0 6 -4 12
-10 12 -5 0 -10 8 -10 18 0 15 2 15 11 2 8 -11 9 -9 4 10 -4 14 -7 27 -7 30 0
18 3 30 8 30 3 0 4 -7 0 -15z m1187 -932 c-7 -3 -13 -11 -13 -19 0 -8 -9 -14
-19 -14 -11 0 -23 -5 -26 -10 -4 -7 3 -8 20 -4 19 5 35 1 56 -15 23 -17 29
-18 29 -6 0 8 -11 17 -25 21 -14 3 -25 10 -25 16 0 5 5 6 11 2 6 -3 16 0 21 7
8 12 9 11 6 -1 -5 -18 23 -48 40 -42 7 2 12 -1 12 -8 0 -6 -4 -9 -8 -6 -4 2
-14 1 -22 -5 -12 -7 -11 -9 5 -9 17 0 17 -2 5 -10 -12 -8 -12 -10 5 -10 17 0
18 -2 5 -11 -12 -8 -10 -9 10 -5 30 6 44 -2 53 -29 6 -17 5 -17 -11 3 -10 13
-21 20 -25 16 -4 -4 -2 -13 4 -21 8 -9 8 -13 1 -13 -6 0 -16 8 -21 18 -9 15
-10 15 -11 -5 0 -18 6 -23 26 -23 14 0 23 -4 20 -9 -4 -5 -1 -11 4 -13 19 -6
-17 -73 -60 -111 -23 -20 -48 -33 -56 -30 -7 3 -17 -2 -20 -11 -5 -12 -10 -14
-19 -6 -6 5 -15 7 -19 3 -9 -9 -37 -13 -32 -4 3 4 -9 13 -25 20 -36 16 -64 55
-55 77 3 8 10 13 14 10 5 -3 9 1 9 8 0 8 -9 12 -21 10 -12 -3 -15 -2 -8 2 19
9 14 24 -5 17 -16 -6 -16 -5 -5 10 8 9 11 21 7 27 -3 5 -1 10 4 10 6 0 11 10
11 23 0 18 2 19 10 7 6 -9 10 -10 10 -3 0 6 -5 15 -11 19 -7 4 -2 11 13 18 13
7 22 19 20 29 -2 9 2 17 8 17 6 0 8 -4 5 -10 -10 -16 1 -11 16 7 10 11 10 14
2 9 -8 -4 -13 -2 -13 4 0 6 -4 8 -10 5 -5 -3 -10 -1 -10 6 0 6 8 9 20 6 13 -3
20 0 20 8 0 18 27 33 59 32 14 0 20 -2 14 -4z"/>
<path d="M2177 6343 c-12 -11 -8 -143 3 -143 13 0 2 -73 -11 -78 -18 -7 -8
-32 12 -32 16 0 20 6 19 28 -1 15 -1 36 1 47 1 11 5 -11 8 -49 4 -46 11 -71
20 -74 8 -3 11 0 8 5 -4 6 2 21 13 33 11 13 20 28 20 33 0 6 2 8 5 5 10 -10
-7 -58 -17 -52 -6 4 -8 -4 -6 -17 1 -13 11 -25 21 -27 15 -3 17 6 19 77 1 45
2 89 2 99 1 9 -5 16 -11 15 -7 -2 -13 5 -13 15 0 15 -2 15 -11 2 -8 -12 -9
-10 -4 7 3 13 3 28 -2 35 -7 13 -9 18 -11 51 -1 9 -6 17 -12 17 -14 0 -13 -46
2 -70 7 -10 9 -23 4 -27 -4 -4 -12 0 -17 10 -14 23 -27 21 -32 -5 -3 -13 -5 5
-4 40 1 34 2 62 1 62 0 0 -4 -3 -7 -7z"/>
<path d="M3823 6334 c-7 -3 -9 -13 -6 -21 5 -13 2 -15 -13 -9 -10 4 -48 9 -82
11 l-64 4 41 -27 c22 -14 39 -28 36 -30 -8 -8 -65 10 -59 19 10 17 -83 14
-104 -3 -9 -8 -19 -5 -37 12 -24 22 -37 16 -15 -6 8 -8 -10 -11 -57 -12 -57
-1 -72 3 -92 21 -21 19 -23 19 -18 4 4 -10 7 -23 7 -28 0 -6 4 -8 9 -5 4 3 16
-3 26 -14 18 -20 17 -20 -21 -19 -23 1 -30 3 -16 6 39 8 24 19 -26 18 -34 0
-55 -6 -68 -19 -19 -18 -19 -18 4 -7 19 10 29 8 62 -10 22 -13 36 -27 33 -33
-4 -6 1 -5 10 2 9 8 22 12 29 9 8 -3 4 -6 -7 -7 -13 0 -8 -5 16 -14 42 -15
102 -10 93 8 -3 6 0 4 8 -4 23 -26 61 -37 116 -33 39 3 52 1 52 -9 0 -11 2
-11 9 0 6 10 36 14 100 15 50 1 91 4 91 8 0 3 -11 4 -24 2 -13 -3 -26 -1 -29
4 -8 13 66 12 76 -1 6 -8 10 -7 14 2 2 6 9 12 14 12 6 0 8 -4 5 -9 -3 -5 1
-11 9 -15 8 -3 15 -1 15 5 0 5 6 9 13 8 31 -4 38 1 27 20 -14 28 -12 39 4 18
19 -25 29 2 10 28 -17 22 -18 35 -4 35 6 0 15 -12 21 -26 5 -15 12 -24 16 -21
3 4 -2 22 -11 41 -9 19 -16 40 -16 48 0 10 -2 10 -10 -2 -6 -9 -5 -17 3 -22 7
-5 0 -8 -18 -8 -21 0 -26 3 -16 9 11 7 9 10 -8 16 -11 3 -21 10 -21 15 0 4 -7
11 -16 14 -15 6 -15 4 -3 -10 12 -15 11 -16 -10 -9 -16 5 -21 4 -17 -4 5 -7
-2 -7 -24 0 -16 6 -30 15 -30 20 0 10 -8 10 -27 3z"/>
<path d="M3615 5896 c-117 -28 -207 -62 -218 -82 -4 -8 -12 -14 -17 -14 -5 0
-27 -19 -50 -42 -35 -36 -39 -44 -23 -46 10 -2 23 -10 30 -19 10 -13 14 -13
38 3 14 9 25 13 24 8 -1 -5 -1 -18 0 -29 1 -18 2 -18 17 3 8 12 21 22 27 22 7
0 6 -4 -3 -10 -13 -8 -12 -10 4 -10 10 0 24 7 30 15 12 17 37 20 76 10 17 -4
15 -1 -7 9 -18 8 -33 21 -33 27 0 7 3 10 6 6 3 -3 16 5 28 18 11 13 32 27 46
30 23 5 27 1 40 -37 21 -59 44 -68 157 -62 79 5 92 3 101 -11 8 -16 10 -16 15
-1 4 9 1 16 -6 17 -7 0 -2 4 9 9 17 6 25 24 35 69 l14 61 40 -40 c22 -21 45
-39 51 -40 21 0 24 -29 4 -35 -28 -9 -14 -32 23 -37 18 -3 38 -7 46 -9 8 -2
16 3 18 13 4 14 -2 15 -36 11 -27 -4 -41 -2 -41 6 0 6 7 11 16 11 14 0 14 3 4
15 -18 22 -5 31 15 11 35 -35 34 -8 -1 33 -21 26 -24 34 -14 46 8 9 8 15 2 15
-6 0 -12 -6 -15 -12 -3 -10 -7 -10 -20 1 -9 7 -15 17 -12 21 6 9 -24 25 -54
29 -5 0 -17 9 -26 18 -30 29 -216 28 -340 -1z"/>
<path d="M2615 5026 c-57 -25 -100 -38 -132 -40 -18 -1 -35 -5 -39 -9 -4 -4
-13 -2 -21 4 -10 9 -13 8 -13 -2 0 -12 -2 -12 -9 0 -5 8 -16 11 -26 8 -9 -4
-14 -3 -11 2 3 5 -5 9 -19 9 -14 0 -22 -4 -19 -9 3 -5 0 -9 -5 -9 -6 0 -11 5
-11 10 0 6 -10 10 -22 10 -20 0 -17 -6 23 -43 25 -23 54 -49 65 -58 37 -30 65
-71 60 -85 -4 -10 -2 -12 5 -8 7 4 10 1 7 -7 -3 -8 0 -21 7 -29 14 -16 18 -37
16 -90 -1 -28 -4 -32 -12 -20 -9 12 -10 12 -5 -3 3 -10 6 -21 6 -23 0 -3 5 -2
10 1 6 3 10 2 10 -4 0 -5 -4 -12 -8 -15 -5 -3 -7 -21 -6 -41 2 -21 -1 -33 -6
-30 -6 4 -10 -5 -10 -18 0 -14 -7 -27 -15 -31 -10 -4 -14 -14 -11 -30 3 -14
-5 -44 -16 -67 -27 -56 -97 -159 -109 -159 -5 0 -8 -5 -6 -12 4 -21 -27 -15
-50 9 -12 13 -24 19 -28 14 -3 -5 -1 -11 4 -13 11 -4 2 -68 -11 -68 -5 0 -6 5
-3 10 8 12 -5 13 -24 1 -8 -5 -10 -14 -6 -21 5 -9 4 -11 -3 -6 -7 4 -13 1 -14
-6 -4 -32 -2 -193 3 -198 6 -5 50 -176 79 -305 18 -78 44 -144 63 -156 5 -3 8
-9 7 -13 -2 -6 2 -18 26 -81 4 -11 8 -22 9 -25 1 -3 4 -12 8 -20 3 -8 8 -27
11 -42 7 -31 46 -92 76 -118 11 -9 20 -22 20 -27 0 -14 29 -38 36 -30 3 3 -11
35 -30 71 -20 37 -36 70 -36 75 0 5 -8 26 -17 47 -19 46 -18 42 -33 119 -7 33
-18 67 -27 77 -10 11 -14 33 -12 65 1 27 -1 55 -5 62 -15 23 -19 158 -5 167 8
4 10 3 5 -5 -4 -6 -2 -18 4 -26 7 -8 9 -15 5 -15 -4 0 3 -10 16 -23 13 -13 35
-44 49 -71 14 -26 37 -59 52 -74 15 -15 28 -31 28 -35 0 -4 17 -31 38 -60 21
-29 45 -65 54 -82 42 -81 104 -193 124 -223 13 -18 26 -43 30 -55 4 -12 23
-44 43 -72 20 -27 41 -57 46 -66 20 -35 124 -185 142 -205 22 -24 37 -48 59
-91 9 -18 20 -33 25 -33 5 0 9 -9 9 -20 0 -11 5 -20 10 -20 6 0 10 -5 10 -11
0 -6 15 -26 33 -44 17 -19 42 -44 54 -57 40 -43 71 -68 83 -68 6 0 18 -7 27
-15 8 -9 18 -13 22 -10 3 4 -3 13 -14 21 -18 12 -81 73 -134 129 -10 11 -27
34 -37 50 -10 17 -21 32 -24 35 -3 3 -12 19 -20 35 -8 17 -17 32 -20 35 -8 8
-143 212 -157 239 -7 13 -13 27 -13 32 0 4 -10 19 -23 33 -26 27 -118 210
-138 271 -20 66 -33 95 -42 95 -5 0 -5 5 -2 10 3 6 -1 13 -9 16 -9 3 -14 10
-11 14 3 5 -2 15 -10 23 -8 9 -15 20 -15 25 0 5 -7 15 -15 22 -9 7 -13 15 -11
17 3 3 -5 15 -18 27 -13 11 -45 55 -73 97 -38 57 -48 81 -41 93 6 10 5 16 -2
16 -6 0 -8 5 -4 11 4 8 -1 9 -17 4 -22 -7 -23 -6 -5 7 16 13 16 16 4 29 -8 8
-13 20 -10 27 2 6 -2 12 -9 12 -7 0 -9 3 -6 7 4 3 2 12 -4 19 -7 8 -6 14 2 20
8 5 10 3 5 -7 -4 -8 0 -5 8 5 9 11 16 26 16 33 0 7 4 13 10 13 13 0 0 32 -19
48 -9 7 -11 12 -6 11 32 -4 40 3 41 36 0 18 -3 32 -7 29 -4 -2 -5 5 -2 17 4
13 8 17 13 9 4 -7 10 1 13 20 4 17 10 29 15 26 4 -2 7 10 5 27 -2 18 -4 88 -5
157 -1 135 0 139 69 266 49 88 58 115 42 125 -9 6 -1 8 23 6 21 -3 43 -9 50
-14 23 -17 57 -13 63 7 7 24 -12 127 -36 189 -13 36 -22 46 -41 47 -53 2 -56
4 -51 24 3 10 11 25 19 31 15 12 19 29 7 28 -5 0 -21 -6 -38 -13z"/>
<path d="M5188 4023 c15 -26 -6 -38 -70 -41 -39 -1 -58 1 -58 9 0 7 -7 5 -19
-5 -16 -15 -20 -15 -33 -2 -12 11 -18 12 -27 3 -8 -8 -11 -7 -11 3 -1 11 -3
10 -11 -3 -8 -13 -14 -15 -29 -7 -26 14 -28 13 -41 -11 -9 -17 -8 -24 2 -31
11 -8 10 -9 -3 -4 -10 3 -18 1 -18 -4 0 -6 -7 -10 -15 -10 -8 0 -14 3 -14 8 4
22 -3 24 -15 6 -19 -26 -109 -34 -100 -9 5 12 9 13 20 4 9 -7 14 -8 14 -1 0
18 -25 20 -46 3 -11 -9 -19 -22 -16 -29 2 -7 -2 -10 -11 -6 -9 3 -14 14 -12
25 4 22 -5 24 -24 7 -8 -8 -11 -8 -8 -2 4 7 -2 14 -13 17 -23 6 -49 -28 -27
-36 6 -2 10 -7 6 -10 -6 -7 -41 -9 -127 -5 -34 2 -62 -1 -62 -5 0 -4 -9 -3
-19 2 -14 8 -22 7 -30 -3 -14 -16 33 -21 219 -20 144 0 210 5 210 15 0 4 17
10 38 13 20 4 49 9 64 12 18 4 32 -1 46 -16 13 -14 22 -18 27 -11 10 17 65 14
65 -3 0 -45 -48 -65 -69 -29 -5 10 -11 16 -13 13 -2 -3 -10 -18 -18 -35 -12
-22 -24 -31 -48 -33 -26 -3 -29 -6 -19 -16 8 -10 19 -11 36 -5 30 12 37 6 16
-14 -19 -20 -20 -47 0 -47 8 0 15 5 15 11 0 14 39 49 55 49 21 0 25 -13 9 -31
-9 -10 -11 -19 -6 -23 16 -10 41 4 35 20 -3 8 1 14 11 14 19 0 20 5 6 31 -11
19 -4 25 16 11 15 -10 12 -52 -3 -52 -7 0 -13 -7 -13 -15 0 -8 -6 -15 -14 -15
-8 0 -16 -6 -19 -14 -3 -8 -16 -16 -29 -18 -17 -3 -13 -5 14 -9 22 -3 34 -1
31 5 -4 5 1 7 10 3 12 -5 17 -1 17 13 0 11 5 20 10 20 6 0 10 7 10 16 0 9 5
12 13 8 8 -6 8 -3 -1 9 -8 9 -11 21 -7 27 4 6 1 18 -7 27 -11 15 -11 16 6 10
14 -6 17 -4 12 9 -5 14 -4 15 9 4 12 -10 18 -10 30 0 9 7 14 19 11 27 -4 8 -1
11 5 7 8 -4 9 1 4 17 -3 13 -3 19 2 14 7 -9 27 -12 36 -5 8 6 47 5 47 -2 0 -4
8 -8 18 -7 12 0 13 2 3 6 -9 4 0 12 24 23 34 16 58 50 35 50 -5 0 -12 9 -15
20 -5 16 -10 18 -25 10 -15 -8 -22 -5 -34 12 -15 21 -16 21 -17 3 0 -16 -3
-14 -10 7 -6 14 -17 29 -25 32 -11 4 -13 2 -6 -11z"/>
<path d="M3840 3940 c0 -11 26 -31 33 -25 4 3 4 2 1 -2 -3 -5 -20 -14 -37 -20
-18 -7 -23 -12 -12 -11 11 2 26 -1 33 -6 8 -5 18 -4 24 2 8 8 18 6 33 -4 13
-8 27 -14 31 -13 5 1 16 1 24 0 13 -1 13 -2 0 -12 -12 -8 -10 -9 8 -4 14 4 34
-1 55 -13 33 -20 122 -29 144 -15 6 5 13 24 15 43 2 21 8 34 16 33 6 -2 12 2
12 8 0 6 -17 9 -43 8 -24 -2 -48 0 -54 4 -6 4 -18 4 -27 1 -9 -3 -16 -1 -16 6
0 6 5 8 10 5 6 -3 10 -1 10 5 0 7 -6 10 -14 7 -7 -3 -19 0 -26 6 -10 10 -10 7
0 -12 10 -19 10 -22 -2 -15 -7 5 -43 9 -80 11 -36 1 -82 6 -102 11 -20 6 -36
7 -36 2z"/>
<path d="M4503 3389 c-5 -16 -8 -18 -15 -7 -6 9 -8 7 -3 -8 3 -14 0 -24 -9
-27 -8 -3 -16 -16 -19 -29 l-4 -23 -2 23 c0 13 3 31 8 41 6 10 6 23 0 32 -6
10 -9 11 -9 1 0 -7 -4 -10 -10 -7 -5 3 -10 1 -10 -5 0 -6 -5 -8 -12 -4 -7 4
-8 3 -4 -5 4 -6 12 -9 17 -6 5 3 6 -1 3 -10 -4 -9 -12 -14 -18 -12 -6 3 -18
-2 -26 -9 -14 -11 -16 -10 -17 8 -1 12 2 27 7 33 5 6 0 10 -15 11 -17 1 -24
-5 -28 -25 -3 -14 -9 -35 -13 -45 -5 -13 -4 -17 4 -12 7 4 10 -5 9 -29 -2 -41
-5 -43 -16 -12 -8 18 -9 16 -8 -14 1 -21 5 -35 9 -33 4 2 6 -9 6 -25 -1 -32
18 -64 33 -55 5 3 9 11 9 17 0 8 -4 7 -9 -2 -7 -11 -11 -5 -16 22 -4 21 -3 41
4 49 32 39 45 53 38 42 -4 -7 -8 -42 -9 -78 -1 -58 -3 -66 -20 -66 -11 0 -16
-5 -13 -10 4 -6 1 -18 -6 -26 -10 -12 -9 -13 5 -8 9 3 16 12 16 20 0 8 4 14 8
14 23 0 55 66 58 118 3 57 13 83 15 41 1 -13 1 -30 0 -37 -1 -8 2 -19 8 -26 7
-8 6 -21 -5 -41 -12 -23 -12 -30 -2 -37 10 -6 9 -12 -6 -23 -24 -18 -17 -19
16 -2 14 7 23 17 21 22 -1 6 1 30 6 55 l9 45 1 -40 c1 -23 6 -46 12 -52 8 -8
4 -15 -12 -27 -13 -9 -18 -16 -12 -16 6 0 19 7 27 16 10 9 24 13 36 9 23 -7
26 -21 8 -28 -7 -3 -8 -6 -3 -6 6 0 16 3 24 8 12 8 12 12 2 25 -9 11 -10 16
-2 16 6 0 11 -4 11 -8 0 -5 9 -19 20 -32 15 -17 20 -19 20 -7 0 8 -5 17 -12
19 -6 2 -8 9 -4 16 3 6 13 9 21 6 8 -4 12 -10 9 -15 -3 -5 2 -6 10 -3 26 10
42 -7 21 -23 -11 -7 -13 -13 -7 -13 7 0 12 -5 12 -10 0 -6 -7 -10 -16 -8 -10
2 -19 -2 -21 -8 -2 -7 8 -11 27 -10 27 1 30 4 25 24 -3 12 -1 22 5 22 6 0 9
-4 6 -9 -3 -5 3 -11 14 -14 16 -4 17 -2 7 14 -6 10 -15 19 -20 19 -4 0 -1 10
8 23 12 19 12 30 3 62 -6 22 -13 34 -15 27 -3 -7 0 -26 6 -42 13 -38 0 -39
-22 -1 -12 20 -14 32 -6 36 5 4 8 14 5 22 -4 9 -1 21 4 29 8 9 7 19 -5 38 -11
16 -13 26 -6 26 6 0 11 -5 11 -12 0 -9 3 -9 12 0 10 10 8 17 -9 34 -25 25 -67
33 -59 11 3 -8 1 -11 -5 -8 -5 4 -9 14 -8 23 3 30 -2 58 -8 44 -4 -10 -8 -10
-19 -1 -12 10 -13 8 -7 -7 6 -17 5 -18 -12 -4 -17 14 -18 14 -6 -7 9 -19 9
-23 -2 -23 -10 0 -13 -9 -10 -27 4 -25 3 -26 -8 -9 -9 14 -9 24 -1 37 14 22 3
33 -16 16 -13 -10 -14 -8 -8 11 4 12 4 22 1 22 -4 0 -9 -9 -12 -21z"/>
<path d="M5800 2865 c-7 -8 -9 -15 -4 -15 4 0 -2 -9 -15 -21 -15 -14 -32 -20
-50 -17 -30 4 -38 -15 -17 -41 8 -11 8 -13 -1 -8 -16 10 -23 -15 -8 -33 7 -8
16 -24 19 -36 6 -18 2 -21 -23 -20 -21 1 -26 4 -20 12 6 8 4 14 -7 18 -14 6
-16 1 -10 -36 6 -34 5 -41 -5 -30 -18 17 -34 15 -19 -3 7 -8 10 -24 7 -34 -3
-14 -1 -18 9 -14 9 3 14 -1 14 -12 0 -9 -4 -14 -9 -10 -6 3 -6 -7 -1 -27 9
-30 2 -57 -7 -30 -3 6 -8 12 -13 12 -4 0 1 -18 12 -40 13 -26 17 -46 12 -58
-4 -9 -8 -24 -8 -32 -1 -22 -20 -14 -24 9 -2 11 -12 23 -23 26 -11 4 -17 11
-14 16 4 5 4 9 1 9 -2 0 -11 -13 -19 -30 -15 -28 -14 -29 6 -27 12 1 25 7 29
12 4 6 8 2 8 -8 0 -14 -5 -17 -20 -12 -16 5 -20 2 -20 -15 0 -16 -4 -20 -16
-16 -12 4 -14 1 -9 -13 4 -14 0 -21 -15 -26 -11 -4 -18 -10 -15 -15 3 -5 0
-10 -6 -12 -6 -2 -10 -13 -7 -23 3 -19 5 -19 23 4 11 13 33 38 50 55 16 17 29
34 27 39 -1 4 4 7 12 7 8 0 17 -12 20 -26 9 -34 18 -24 21 23 2 21 5 45 8 53
3 8 5 24 5 35 -3 49 3 75 17 75 8 0 12 6 9 14 -3 8 -1 17 4 20 6 3 8 16 5 27
-5 19 -3 20 18 14 21 -7 22 -6 10 9 -8 10 -9 16 -3 16 6 0 9 6 6 14 -3 7 2 21
11 29 14 14 13 18 -7 39 -13 13 -19 20 -14 16 19 -15 28 -8 15 10 -7 9 -9 14
-4 9 9 -8 47 42 39 54 -2 4 4 14 13 21 10 7 18 23 19 36 1 26 0 26 -16 7z"/>
<path d="M2393 805 c-74 -52 -83 -160 -16 -186 64 -24 133 38 133 120 0 70
-62 105 -117 66z"/>
</g>
</svg>
